<?xml version="1.0" encoding="utf-8"?>
<!-- Generator: Adobe Illustrator 18.1.1, SVG Export Plug-In . SVG Version: 6.00 Build 0)  -->
<svg version="1.1" id="Layer_1" xmlns="http://www.w3.org/2000/svg" xmlns:xlink="http://www.w3.org/1999/xlink" x="0px" y="0px"
	 viewBox="0 0 40 40" enable-background="new 0 0 40 40" xml:space="preserve">
<g>
	<path fill="#EE2A7B" d="M20,0.5C9.2,0.5,0.5,9.2,0.5,20c0,10.8,8.7,19.5,19.5,19.5c10.8,0,19.5-8.7,19.5-19.5
		C39.5,9.2,30.8,0.5,20,0.5L20,0.5z"/>
	<path fill="#FFFFFF" d="M25.9,20.7h-3.9v13.8h-5.7V20.7h-2.7v-4.9h2.7v-3.2c0-2.3,1.1-5.8,5.8-5.8l4.3,0v4.7h-3.1
		c-0.5,0-1.2,0.3-1.2,1.3v2.9h4.4L25.9,20.7z"/>
	<path d="M24.9,20.7"/>
</g>
</svg>
