<?xml version="1.0" encoding="utf-8"?>
<!-- Generator: Adobe Illustrator 18.1.1, SVG Export Plug-In . SVG Version: 6.00 Build 0)  -->
<svg version="1.1" id="Layer_1" xmlns="http://www.w3.org/2000/svg" xmlns:xlink="http://www.w3.org/1999/xlink" x="0px" y="0px"
	 viewBox="0 0 40 40" enable-background="new 0 0 40 40" xml:space="preserve">
<g>
	<path fill="#EE2A7B" d="M20,0.5C9.2,0.5,0.5,9.2,0.5,20c0,10.8,8.7,19.5,19.5,19.5c10.8,0,19.5-8.7,19.5-19.5
		C39.5,9.2,30.8,0.5,20,0.5L20,0.5z"/>
	<path fill="#FFFFFF" d="M21.6,11.3l1.6-1.1c0.2-0.1,0.3-0.4,0.2-0.6c-0.1-0.2-0.3-0.4-0.5-0.4h-7c-0.8,0-1.5,0.1-2.3,0.4
		c-2.5,0.9-4.3,3-4.3,5.3c0,3.1,2.4,5.5,5.7,5.6c-0.1,0.3-0.1,0.5-0.1,0.7c0,0.5,0.1,0.9,0.4,1.4h-0.1c-3.1,0-5.9,1.5-7,3.8
		c-0.3,0.6-0.4,1.2-0.4,1.8c0,0.6,0.1,1.1,0.4,1.6c0.7,1.2,2.1,2.1,4,2.6c1,0.3,2.1,0.4,3.2,0.4c1,0,2-0.1,2.8-0.4
		c2.8-0.8,4.5-2.8,4.5-5.2c0-2.3-0.7-3.6-2.7-5c-0.8-0.6-1.6-1.5-1.6-1.7c0-0.5,0-0.7,1.1-1.6c1.4-1.1,2.2-2.5,2.2-4.1
		c0-1.4-0.4-2.6-1.1-3.5h0.6C21.4,11.4,21.5,11.4,21.6,11.3z M12.8,14.7c-0.1-1.2,0.1-2.2,0.7-2.9c0.4-0.4,0.9-0.7,1.4-0.7l0.1,0
		c1.6,0,3.1,1.8,3.3,3.9c0.2,1.2-0.1,2.3-0.7,3c-0.4,0.4-0.9,0.7-1.4,0.7h0h0C14.6,18.6,13,16.8,12.8,14.7z M19.9,27
		c0,0.2,0.1,0.4,0.1,0.6c0,2.1-1.5,3.1-4.6,3.1c-2.3,0-4.1-1.4-4.1-3.2c0-1.7,2.1-3.1,4.5-3.1h0.1c0.5,0,1,0.1,1.5,0.2
		c0.2,0.1,0.3,0.2,0.5,0.3C18.9,25.7,19.7,26.2,19.9,27z"/>
	<path fill="#FFFFFF" d="M34,20.5c0,0.3-0.2,0.5-0.5,0.5h-4v4c0,0.3-0.2,0.5-0.5,0.5h-1.1c-0.3,0-0.5-0.2-0.5-0.5v-4h-4
		c-0.3,0-0.5-0.2-0.5-0.5v-1.1c0-0.3,0.2-0.6,0.5-0.6h4v-3.9c0-0.3,0.2-0.5,0.5-0.5H29c0.3,0,0.5,0.2,0.5,0.5v3.9h4
		c0.3,0,0.5,0.2,0.5,0.5V20.5z"/>
</g>
<path d="M31.8,20.5"/>
</svg>
