<?xml version="1.0" encoding="utf-8"?>
<!-- Generator: Adobe Illustrator 18.1.1, SVG Export Plug-In . SVG Version: 6.00 Build 0)  -->
<svg version="1.1" id="Layer_1" xmlns="http://www.w3.org/2000/svg" xmlns:xlink="http://www.w3.org/1999/xlink" x="0px" y="0px"
	 viewBox="0 0 40 40" enable-background="new 0 0 40 40" xml:space="preserve">
<g>
	<path fill="#EE2A7B" d="M20,0.5C9.2,0.5,0.5,9.2,0.5,20c0,10.8,8.7,19.5,19.5,19.5c10.8,0,19.5-8.7,19.5-19.5
		C39.5,9.2,30.8,0.5,20,0.5L20,0.5z"/>
	<path fill="#FFFFFF" d="M27.5,7.8h-15c-2.6,0-4.7,2.1-4.7,4.7v15c0,2.6,2.1,4.7,4.7,4.7h15c2.6,0,4.7-2.1,4.7-4.7v-10v-5
		C32.2,9.9,30.1,7.8,27.5,7.8z M29,10.4h0.5v4.2l-4.2,0l0-4.2L29,10.4z M16.5,17.4c0.8-1.1,2.1-1.8,3.5-1.8c1.5,0,2.8,0.7,3.5,1.8
		c0.5,0.7,0.8,1.6,0.8,2.5c0,2.4-2,4.4-4.4,4.4c-2.4,0-4.4-2-4.4-4.4C15.6,19,15.9,18.2,16.5,17.4z M30,27.6c0,1.3-1.1,2.4-2.4,2.4
		H12.4c-1.3,0-2.4-1.1-2.4-2.4V17.4h3.7c-0.3,0.8-0.5,1.6-0.5,2.5c0,3.7,3,6.8,6.8,6.8c3.8,0,6.8-3.1,6.8-6.8c0-0.9-0.2-1.8-0.5-2.5
		H30V27.6z"/>
</g>
</svg>
