<?xml version="1.0" encoding="utf-8"?>
<!-- Generator: Adobe Illustrator 18.1.1, SVG Export Plug-In . SVG Version: 6.00 Build 0)  -->
<svg version="1.1" id="Layer_1" xmlns="http://www.w3.org/2000/svg" xmlns:xlink="http://www.w3.org/1999/xlink" x="0px" y="0px"
	 viewBox="0 0 40 40" enable-background="new 0 0 40 40" xml:space="preserve">
<g>
	<path fill-rule="evenodd" clip-rule="evenodd" fill="#EE2A7B" d="M20,0.5C9.2,0.5,0.5,9.2,0.5,20c0,10.8,8.7,19.5,19.5,19.5
		c10.8,0,19.5-8.7,19.5-19.5C39.5,9.2,30.8,0.5,20,0.5L20,0.5z"/>
	<path fill-rule="evenodd" clip-rule="evenodd" fill="#FFFFFF" d="M22,26.5c-1.6,0-3.1-0.9-3.6-1.9c0,0-0.8,3.4-1,4.1
		c-0.3,1.1-0.9,2.2-1.4,3.1c-0.8,1-1.7,0.3-1.8-0.7c0-1,0-2.2,0.3-3.4c0.3-1.2,1.9-8.2,1.9-8.2s-0.5-1-0.5-2.4
		c0-2.2,1.3-3.9,2.8-3.9c1.3,0,2,1,2,2.3c0,1.4-0.9,3.4-1.3,5.3c-0.4,1.6,0.8,2.9,2.3,2.9c2.8,0,4.7-3.7,4.7-8
		c0-3.3-2.2-5.7-6.1-5.7c-4.5,0-7.2,3.4-7.2,7.2c0,1.3,0.4,2.2,1,2.9c0.3,0.3,0.3,0.5,0.2,0.8c-0.1,0.3-0.2,0.9-0.3,1.2
		c-0.1,0.4-0.4,0.5-0.7,0.4c-2.1-0.8-3-3.1-3-5.7c0-4.3,3.5-9.4,10.5-9.4c5.6,0,9.3,4.1,9.3,8.6C29.9,22.1,26.7,26.5,22,26.5
		L22,26.5z"/>
	<path fill-rule="evenodd" clip-rule="evenodd" d="M21.8,25.9"/>
</g>
</svg>
