<?xml version="1.0" encoding="utf-8"?>
<!-- Generator: Adobe Illustrator 18.1.1, SVG Export Plug-In . SVG Version: 6.00 Build 0)  -->
<svg version="1.1" id="Layer_1" xmlns="http://www.w3.org/2000/svg" xmlns:xlink="http://www.w3.org/1999/xlink" x="0px" y="0px"
	 viewBox="0 0 40 40" enable-background="new 0 0 40 40" xml:space="preserve">
<g>
	<path fill="#EE2A7B" d="M19.9,0.4C9.1,0.4,0.4,9.1,0.4,19.9c0,10.8,8.7,19.5,19.5,19.5c10.8,0,19.5-8.7,19.5-19.5
		C39.4,9.1,30.6,0.4,19.9,0.4L19.9,0.4z"/>
	<path fill="#FFFFFF" d="M30.3,14.5c0,0.2,0,0.5,0,0.7c0,7.1-5.4,15.3-15.3,15.3c-3,0-5.9-0.9-8.3-2.4c0.4,0.1,0.9,0.1,1.3,0.1
		c2.5,0,4.8-0.9,6.7-2.3c-2.4,0-4.3-1.6-5-3.7c0.3,0.1,0.7,0.1,1,0.1c0.5,0,1-0.1,1.4-0.2c-2.5-0.5-4.3-2.7-4.3-5.3c0,0,0,0,0-0.1
		c0.7,0.4,1.6,0.6,2.4,0.7c-1.4-1-2.4-2.6-2.4-4.5c0-1,0.3-1.9,0.7-2.7c2.7,3.3,6.6,5.4,11.1,5.6c-0.1-0.4-0.1-0.8-0.1-1.2
		c0-3,2.4-5.4,5.4-5.4c1.6,0,2.9,0.7,3.9,1.7c1.2-0.2,2.4-0.7,3.4-1.3c-0.4,1.3-1.3,2.3-2.4,3c1.1-0.1,2.1-0.4,3.1-0.8
		C32.3,12.8,31.4,13.7,30.3,14.5L30.3,14.5z"/>
</g>
<path d="M28.6,15.4"/>
</svg>
