<?xml version="1.0" encoding="utf-8"?>
<!-- Generator: Adobe Illustrator 18.1.1, SVG Export Plug-In . SVG Version: 6.00 Build 0)  -->
<svg version="1.1" id="Layer_1" xmlns="http://www.w3.org/2000/svg" xmlns:xlink="http://www.w3.org/1999/xlink" x="0px" y="0px"
	 viewBox="9 0 563.3 315" enable-background="new 9 0 563.3 315" xml:space="preserve">
<g>
	<g>
		<path fill="#EC008B" d="M506.5,269.9c-0.2-0.2-0.7-0.5-1-0.7c0.5-0.5,1-2,1.7-0.7C507.2,269,507,269.4,506.5,269.9z"/>
		<path fill="#EC008B" d="M468,301.3c-1-0.5-2-0.7-3-2c0.5-0.7,1-1.2,1.7-2C468.7,297.8,470.2,299.5,468,301.3z"/>
		<path fill="#EC008B" d="M497.6,264.5c-0.7,0-1.2-0.2-2-1c0.5-1.2,0.7-1.7,2-2.2C498.6,262,498.8,263.3,497.6,264.5z"/>
		<path fill="#EC008B" d="M451.5,287c0.5-1.2,1-1.7,2.5-0.7C454.2,287.5,452.7,288.4,451.5,287z"/>
		<path fill="#EC008B" d="M558,160.7c-1.2,1.7-2.5,2-3.9,0.7c0.7-1.2,1.5-1.5,2.2-2C556.8,159.7,557.3,160.2,558,160.7z"/>
		<path fill="#EC008B" d="M448.3,284.7c-1,0.5-2.2,1.7-3.5,0c0-0.7,1-2.2,2-2.2C448,283.3,447.8,284,448.3,284.7z"/>
		<path fill="#EC008B" d="M563.2,96.3c0.2,0.2,0.5,0.5,0.7,0.5c0,1.5-1.7,2.5-3,2.7c-1-1,0-2-1-3C561,95.8,562.2,97,563.2,96.3z"/>
		<path fill="#EC008B" d="M557.8,99.2c-0.7-0.7-1-1.5-1.5-2.5c1-0.5,2.2-1.5,3.5,0C560,98,558.5,98.5,557.8,99.2z"/>
		<path fill="#EC008B" d="M423.1,276.6c-1-0.5-1.2-1.2-1.5-1.7c0.7-1,1.7-1.2,2.7-1.7C425.8,273.9,424.6,276.1,423.1,276.6z"/>
		<path fill="#EC008B" d="M434.2,260.3c-0.7,1-1.5,0.7-2.2-0.2c0.7-0.7,0.2-1.5,1.2-2.2C434.2,258.6,433.2,259.6,434.2,260.3z"/>
		<path fill="#EC008B" d="M424.8,267.7c-1.5-1.2-0.5-2.5,0.7-3.7C427.3,265.3,427.1,267.5,424.8,267.7z"/>
		<path fill="#EC008B" d="M393.8,265c-2-1.2,1.7-4.2,2.7-3.9C397.9,263,395.7,265.3,393.8,265z"/>
		<path fill="#EC008B" d="M376.2,252.2c-1,1-1.7,2.7-3,2.7c-1-0.7-0.7-1.7-0.5-2.7C373.8,250.9,375,251.4,376.2,252.2z"/>
		<path fill="#EC008B" d="M491.7,72.1c-0.2-0.2-0.7-0.5-1-0.7c0.5-0.7,1-0.7,1.5-1C492.7,70.6,492.4,71.4,491.7,72.1z"/>
		<path fill="#EC008B" d="M490.9,70.1c-0.5-0.5-1-0.5-1.5-0.2c-2.7-2.5,1.5-5.7,0.7-8.4c1.7-2.5,3.7-3.5,5.9-3.7
			C497.4,62.5,492.2,66.4,490.9,70.1z"/>
		<path fill="#EC008B" d="M373,207.8c0.5-2,2.2-3,3.9-2C376.7,208.3,375,209.3,373,207.8z"/>
		<path fill="#EC008B" d="M486.3,20.8c-0.2,0.2-0.5,0.7-0.7,1c-1-0.7-1.5-1.2-0.5-2.2C485.3,20.1,485.8,20.3,486.3,20.8z"/>
		<path fill="#EC008B" d="M353.3,213.7c-1-0.7-2-1.7-3.2-2.5c1.2-0.7,3.2-0.5,3.9,1c-0.2,0.5-0.7,1-0.5,1.2
			C353.5,213.5,353.5,213.5,353.3,213.7z"/>
		<path fill="#EC008B" d="M362.7,161.2c-3,2.7-6.7,1.2-9.9,0.7c0.5-2.7,4.2-2.2,5.9-4.2C358,160.7,362.2,158.2,362.7,161.2z"/>
		<path fill="#EC008B" d="M369.8,134.3C371.1,129.8,374,136.5,369.8,134.3L369.8,134.3z"/>
		<path fill="#EC008B" d="M345.7,165.6c-0.5-0.5-1-0.5-1.5-0.2c-0.2-1.5-0.7-3,0.7-4.4C347.1,161.2,347.6,163.9,345.7,165.6z"/>
		<path fill="#EC008B" d="M445.1,40.3c-0.7-1.7-0.2-2.7,1.5-3.2C447.8,38.3,446.8,40.3,445.1,40.3z"/>
		<path fill="#EC008B" d="M401.2,94.6c-0.2,0.5-0.5,0.5-1,0.5c-2-0.5-3.9-3.5-5.2-4.9c0.7-1,1.7-1,2.7-1.7
			C399.2,90.9,400.9,91.8,401.2,94.6z"/>
		<path fill="#EC008B" d="M396.5,96.8c-1.2,1.7-2.5,1.2-3.9,1.2c-0.2-3.5-5.7-4.4-7.9-6.7c0.7-1,0.2-2.2,0.2-3.2
			C390.1,87.6,394,92.8,396.5,96.8z"/>
		<path fill="#EC008B" d="M410,78.3c-0.7,1-1.5,0.5-2,1c-1.2-1-0.5-2,0.2-3.2C409.3,76.8,410,77.5,410,78.3z"/>
		<path fill="#EC008B" d="M394.7,82.7c-2-2.5-3.7-5.2-3.5-7.9C394,77.3,398.2,80,394.7,82.7z"/>
		<path fill="#EC008B" d="M329.6,160.9c-1,1.7-2.2,1.2-3.2,1.2c-0.7-1.2-2-2.2-1-3.7C326.9,158.7,328.1,159.4,329.6,160.9z"/>
		<path fill="#EC008B" d="M410,57.3c-0.7,0.7-1.2,1.5-2,2.2c-0.5-0.5-1.2-1-1.7-1.5c-0.5-0.7,1.2-1.5,0.7-2.2
			C408.1,55.1,409,56.6,410,57.3z"/>
		<path fill="#EC008B" d="M383.6,88.9c-1,0.2-2,0.7-3.2-0.5C381.4,87.2,383.6,88.1,383.6,88.9z"/>
		<path fill="#EC008B" d="M413,20.3c-0.7-1.5-3-3.2-1.2-4.9C414.2,16.1,414.2,18.6,413,20.3z"/>
		<path fill="#EC008B" d="M365.4,74.8c-1,1.5-2,2.2-3.5,0.5C362.2,73.8,364.6,73.1,365.4,74.8z"/>
		<path fill="#EC008B" d="M385.1,49.7c-0.7,1-1.7,1-2.7,0c-0.2-1.2,1.2-1.7,2-2.2C385.4,47.9,385.4,48.7,385.1,49.7z"/>
		<path fill="#EC008B" d="M350.8,89.4c-0.5-0.5-1-0.7-1.5-1.2c0.5-1,0.2-2.2,1-3.2c1.5,0.5,1.2,1.5,3,2
			C353.1,88.4,352.1,88.9,350.8,89.4z"/>
		<path fill="#EC008B" d="M371.3,48.9C374,45,374.8,52.4,371.3,48.9L371.3,48.9z"/>
		<path fill="#EC008B" d="M382.7,25.5c1.7-1.5,4.7-1,5.9,0.5C393.5,31.7,380.9,33.6,382.7,25.5z"/>
		<path fill="#EC008B" d="M377.7,44c-1.5,1-3.5-1.7-1.5-3C377.5,42,377.2,43,377.7,44z"/>
		<path fill="#EC008B" d="M343.9,116.5c2-3.7,6.4-1.2,10.1,0.5C353.3,123.4,345.4,121.2,343.9,116.5z"/>
		<path fill="#EC008B" d="M542.7,233.2c-4.4-3.2-4.4-7.9-10.1-10.1c-5.7,2.2-4.4,6.4-5.4,10.6c-2,1.5-4.4,0.2-6.7-0.5
			c-7.2,0.7-7.9,11.6-14.6,11.1c0.5-1.5-1.5-0.5-2-1.7c-5.2,1-6.4,4.2-8.1,9.1c-1,0.2-2.2,0.2-3.5,0.5c-2.7-2.5-5.2-4.2-7.4-1
			c-0.5,1.2,1.7,0.5,1.5,1.7c-1.7,2.2-2.2,4.4-4.2,6.7c-3.9-1.2-5.9-4.2-7.4-4.9c0-1.5-0.5,0.7-1,1.2c-0.7-0.5-1-1-1-1.5
			c-3.5,1.7-9.1-0.5-12.6-0.2c4.9,1,0.2,10.1-4.9,4.4c0.5-1.2,0-2.2,1.2-3.5c-2.5-0.7-1.2-2-3-3.5c-2.7,0.7-5.9,0.2-8.4,3.2
			c0-2.5-2.5-3.5-3.7-4.7c-4.7,1.5-6.9,8.9-11.6,7.9c-1-2.2,3.7-5.9,4.2-6.7c-1.5-0.2-2.7,1.5-4.2,1c-3.7-2.5-3.2-4.2-5.2-7.2
			c-1,0.7-1.7,1.5-2.7,0.5c0.5-2-0.5-3.9-2.2-5.2c-1.5-1.2-8.9-2.7-9.6-2.5c0.7-2.2-1.2-2.2-2-4.4c-3,0.7-5.2,1.5-8.6,0.7
			c-2,2.7-5.7,9.9-9.6,9.4c-1.5-5.4,9.4-8.6,9.9-13.8c-0.2-0.2-0.7-0.5-0.5-1c-2-1-11.3-0.5-5.4-6.7c-1-0.7-0.5-2.5-2.2-2.2
			c0.7,0,1.5-1,1.5-1.7c-4.9-3.9-7.2,1.5-11.3-4.4c0.7-2.7,1.7-3.9,3.7-6.4c-1-1.2-1.5,1-2.5-0.5c0.5-0.7,2.5-0.7,1.7-2
			c-1.7,2.2-2-1.2-0.5-2.2c-2-1.2-3.7,0.5-5.7,0.5c0.2-0.5,1.2-1.2,0.7-1.7c-1.7-0.7-4.9-4.2-8.1-3.9c1-0.7-1.7-1-0.7-1.7
			c0.2-0.2,0-0.7,0.2-1c2.2-2.2,6.2-1.5,7.4-3.9c1.2-2.5-1.7-3.5-2.5-5.9c-3.9,1.5-8.4-4.7-7.6-8.1c1.2-1.2,1.7-0.7,3.5-2.7
			c0.5-1-1.2-1.5-0.2-2.5c1.5-3,3.2,1.2,3.9,0c0-1.2-1.7-2.5,0-3.9c-3.5-0.5-3.7-2.7-6.4-2c2.7-2.7-1-3.2-0.2-5.2
			c3.9,0.2,3.5-2.2,6.9-2.7c1-3.2,0.5-3.5-2.7-5.7c-0.7-2-1.7-4.7-4.7-5.7c0.2-2,0.5-3.7,1.2-5.7c2.5,2,4.2-2,6.4-1.5
			c0.2-2.2-1.2-2.5-2-3.2c1.2-2.5,3.9-5.2,7.2-5.9c1-0.7-0.5-1.5,0.7-2.2c-1.2-0.5-2.5-2.2-3.5-3.5c1.2-1.2,0.2-2.2,1-3.2
			c1.5-0.7,2.7-1.7,4.2-2.2c-3.7-2-3.9-6.9-0.2-8.6c3.2,1.7,4.4,3.5,7.4,3.7c2-2.2,1.2-3.9,2.2-6.2c-8.4-3.9,1.2-10.4,4.9-6.7
			c2.2-1.2,2.5-2.2,4.7-3.5c-0.7-1.7,0.5-2.5,2-3.9c-0.7-3-0.2-6.2,2.7-9.6c2.7,2,4.7,2,6.2,4.4c0.5-2.2-0.7-1,2-3
			c-1.2-1.2-2.2,1-3.5,0c2.2-3.2,3-4.9,5.7-7.6c-0.5-1-0.5-2.2,0-3.5c1.2,0,2.2-1.2,3.5,0c0,1.2,0.7,2.2-0.5,3.5
			c5.7,2.7,11.6,1.7,17.3,0.7c0.5-2.5-0.2-7.4-3.7-7.4c0.2-3.5-3.9-6.7-1.5-10.1c3.2,1.2,3.7,4.2,6.4,4.7c-1.5,2.7,0,5.2,1.2,7.6
			c3.9,0,6.2,0.7,10.4,2.2c1-2,1.7-4.2,2.2-6.2c1.2,0,2.5-1,3.7-0.2c1,3.5,4.7,3,5.7,5.7c1.2-0.2,2.7-0.5,3.9-1.2
			c0.5,0.5-0.2,0.7,0.2,1.2c1.2,0.2,3.5-3.5,3-0.7c2.7-1.7,4.4-3,6.2-2.7c1.5-1-0.5-1.7,1-2.5c0.7,1.5,2.5,1.5,3.2,3.2
			c1.5-1.7,3.7,1,5.2-2c0.2,2.2,3,1.2,4.2,1.2c-1,2.5,1.7,3,3,5.4c1-1,1.7-2.5,3-1.5c-0.2,0.7-1.7,1.5-1,2c0.7-0.2,1.5-1,2.5-0.7
			c-0.7,1.7,3.7,2.7,4.7,2.7c1.5,0.5-1-1,0.5-1.2c1,1.2-0.7,2.7,0.7,3.9c3-0.7,6.7-3,8.6-4.2c0.2,1.2,0.2,2.5-0.2,3.7
			c0.5,0.7,1,0,1.5,0.2c-1.7,2.7-1,5.2-1,7.6c0.5-0.2,1-0.5,1.5-0.5c-1.5,0.7-0.7,1-0.7,2.2c1.5,0.2,3,1.5,4.4,1
			c-1.2,1,0.5,1.7,0.5,2.7c1,0,1.7-1.5,2.5-2.5c1,2.5,3-1.2,4.7,0c1.2,1,1.7,2.5,3.2,1.7c-1.7,3-0.2,3.9-1.2,6.4
			c-0.5-0.5,0-0.7-0.7-1.2c0.2,1.5-1.7,1.7-1.2,3.5c1.2-2.5,2,0.2,2.7,0c2.7-1.5,5.9-3,7.9-1.2c3.9,3.2-1.7,6.2-0.5,10.4
			c1-0.5,0.7-3.5,2.2-2c-1.7,1.2-0.5,1-1.5,2.7c0.7,1.2,2.7-0.5,2.2,0.7c-0.5-0.2-1.2,0.5-0.7,1c2.5,0.7,4.7,3,7.4,1
			c-1.2,2.5,2,1,1,3.7c3.2,1.7,3.5,6.7,5.2,10.6c-1.2,1-0.5,2-2,3c2.5,0.7-1,1.7,1,2.5c0,0.5-2,1.2-1,2c0.2,1.7,1-0.2,2,0.5
			c-2,2.2,2,2.2-0.7,4.4c1,1.5,1.7-0.5,2.5-0.2c0,3.9,6.2,4.4,6.7,6.7c1.2,0,1.2-2.5,3-1.5c-0.7,2.5-1.7,6.7-3.9,7.4
			c0.2-0.5,0.5-1-0.2-1.2c-7.6,4.7-7.4,12.3-2.7,18c5.7-2.7,9.9,5.7,4.9,8.1c0.5-0.5,1-1.2,0.2-1.5c-1.7,2-2.5,1.5-4.7,3
			c-0.2-2.2-2.5-0.7-3.7-1.2c-4.4,6.4-4.7,14.1,0.5,20.2c-0.7,2.2-0.7,4.2-1.7,6.4c0-2.2-5.2,2-5.4-1.7c-4.7,0-5.9,5.4-6.9,8.4
			c0.5-0.7,2.5-1.5,2.2-0.5c-3,5.2,1.5,8.6-1,13.1c2.5,1,2.5,3.2,4.9,1.7c0.7,1.2,2,2.5,2,3.9C544.2,231.5,543.5,232.4,542.7,233.2z
			"/>
		<path fill="#EC008B" d="M415.2,269.4c-0.2-3,3.9-4.9,6.7-5.4C422.4,268.7,418.9,268.7,415.2,269.4z"/>
		<path fill="#EC008B" d="M408.1,50.4c2.7-2.5,4.7-5.7,7.6-7.6c3.7-2.5,7.4-1.7,10.6-2.2c7.9,3.9,10.4,11.3,10.6,18
			c-2.5,7.4-9.6,11.8-16.3,11.3c-3-2.7-6.4-3.5-8.6-3.7C410,61,408.8,55.6,408.1,50.4z"/>
		<path fill="#EC008B" d="M553.1,215.2c3.9,0.7,6.9,3.7,11.1,7.2C560.5,220.9,556.8,218.4,553.1,215.2z"/>
		<path fill="#EC008B" d="M584.2,230c-0.2-2,3.5-3.7,4.9-1.7c-1.2,0.5-2.5,1.2-3.7,2.2C584.9,230.2,584.7,229.7,584.2,230z"/>
		<path fill="#EC008B" d="M439.9,53.1c-1.5-2-3.9-6.7-4.2-9.6C439.4,46.5,438.6,49.9,439.9,53.1z"/>
		<path fill="#EC008B" d="M429,38.3c-2-1-1.5-2.7-2-4.7C429.3,33.1,427.5,36.8,429,38.3z"/>
		<path fill="#EC008B" d="M583.7,203.6c4.7,2.2,9.6,1.7,14.3,5.4c-2.7,2.5-4.9-2.5-7.4-0.5C589.4,205.3,585.9,206.1,583.7,203.6z"/>
		<path fill="#EC008B" d="M425.1,30.9c0.5-0.2,0.5-0.5,0.2-1c0.7-0.5,1.5,1.2,1.5,1.5C426.3,31.7,425.8,31.4,425.1,30.9z"/>
		<path fill="#EC008B" d="M493.4,60.8c-0.5-4.4,1.2-8.6,2-12.8c-1-1-0.5,2-1.5,0.2c1.7-2.2,4.4-3.9,6.2-0.2c-1.2,1-1.7,2-0.7,3
			C494.6,51.9,496.9,57.6,493.4,60.8z"/>
		<path fill="#EC008B" d="M490.2,54.3c-0.7-1.5-1.2-3,0.2-4.2C491.7,51.6,491.2,52.9,490.2,54.3z"/>
		<path fill="#EC008B" d="M500.8,45.7c-0.7-2.5,1.5-4.7,2.7-7.2C504.8,41,501.6,43.2,500.8,45.7z"/>
		<path fill="#EC008B" d="M484.8,27c-0.5-0.7-1.2-1.7,0-2.5C485,25.2,486,26.2,484.8,27z"/>
		<path fill="#EC008B" d="M565.9,115c-0.7,0.5-2.7-1.7-0.7-2.2C566.2,113.8,565.4,114.3,565.9,115z"/>
		<path fill="#EC008B" d="M526.5,65.7c-4.7,11.1-17.5,4.9-16-3.7c3.9-7.6,13.8-4.2,14.3,3C525.2,65.4,527.2,64.5,526.5,65.7z"/>
		<path fill="#EC008B" d="M564.5,94.8c-0.2-2.5,3.7-4.2,5.2-2c0.2,0.5-1.2,1.2-0.7,1.7C567.7,95.8,566.2,94.8,564.5,94.8z"/>
		<path fill="#EC008B" d="M542.7,39.8c6.2,2.5,7.6,10.1,3.2,12.1C538.6,55.6,531.6,41.5,542.7,39.8z"/>
		<path fill="#EC008B" d="M344.2,177.2c5.2-0.7,10.4-0.2,15.8-1.2c0.2,1.2-3.5,0-3.2,1.7C352.8,176.7,347.1,180.6,344.2,177.2z"/>
		<path fill="#EC008B" d="M435.7,270.9c-2.2-2,0.7-6.4,1.2-9.4C437.9,263.5,436.9,268,435.7,270.9z"/>
		<path fill="#EC008B" d="M357.7,58.3c0.5-1,0-1.7,1-2.7c2.7,3.2,6.2,10.6,10.6,15.8c0.2,1-0.5,1.5-0.2,0.2
			c-3.5-4.9-6.2-6.4-7.9-11.1C359.7,58.5,358.7,60,357.7,58.3z"/>
		<path fill="#EC008B" d="M572.3,227c-3,0-4.7-1.7-6.4-3.9c-1.5-2,3,0.7,4.7,2C571.4,225.8,571.6,226.5,572.3,227z"/>
		<path fill="#EC008B" d="M425.8,28.9c-0.7-0.2-2.5-3-1.2-3.9C425.6,26.5,425.3,27.7,425.8,28.9z"/>
		<path fill="#EC008B" d="M578.8,147.3c1.7-1,5.9-1.5,8.4-0.7C584.4,148.1,581.7,146.6,578.8,147.3z"/>
		<path fill="#EC008B" d="M486.5,37.6c-1-0.7-1.5-4.2-1-6.2C485.8,33.6,486.3,35.6,486.5,37.6z"/>
		<path fill="#EC008B" d="M378,277.1c-0.5-1-1,0-1.5-0.7c-0.7-0.7,0.5-1.5,0.2-2.5c-1-1.5-2.7-2-4.2-2.5c0.7-0.2,1.5-0.2,2.2-1
			c0.2-1-0.5-1.7-0.7-2.7c2.2-2,1.2-4.2,1-6.2c-0.5-0.5-1.2-0.5-1.7-1.2c1,0,2,1.5,3,1c1.7-1.7,1.2-3.7,3.5-4.7
			c0.5-1-0.7-1.7,0.2-2.7c1.2,0.7,2.7,1,3.9,0.2c0.5-0.5,0-1.2,0.5-1.7c1-0.2,2.2-0.2,2.7-1.7c1,0,1,1.2,1.7,1.7
			c1.2,0,2.2-1.5,3.5-1.5c0.7,0.5,1.5,0.7,2.2,1.7c0.7,0.2,1.5-0.5,2-0.5c0.5,0.5,0.5,0.7,0.7,1.2c0.7,0.5,1.5-0.2,2.5-0.7
			c1.2,0.7,0.2,1.5,0.5,2.5c0.7,1.5,3,1.2,4.2,2c0.5,1,0.2,1.7,0,2.7c1.2,2,3,2,3.7,3.2c-0.5,0.5-1,1-1.5,1
			c-0.2,0.7,0.2,1.5,0.2,2.2c0.5,0.5,1.7,0.5,1.7,1.2c-0.2,1.2-1.5,0.5-1.7,1.7c1,0.5,1.5,1.2,1.2,2.2c-1.2,0.7-1.7,1-2.2,2.2
			c0.5,0.5,0.5,1,1,1.2c-0.7,0.7-1.2,0.7-2,1.5c-0.2,0.5,0.5,1.2,0.5,1.7c-2,0.2-4.4,2.5-3.7,3.9c-0.7,1.5-2.7,0-3.5,2
			c-2.5-0.7-5.2,0-8.1,1.7c-1-0.7-1-2-2-2.2c-0.7,0-1.2,1-2,1c-0.7-2-1.7-3-3.7-1.5c-0.2-0.5-0.2-1-0.5-1.7
			C380.2,279.6,376.2,279.8,378,277.1z"/>
	</g>
	<g>
		<g>
			<path d="M78.3,199.9H61.7v-7.6h-0.2c-0.7,1-1.7,2.2-2.7,3.2c-1.2,1-2.5,2-4.2,3s-3.2,1.7-5.2,2.2c-2,0.5-3.9,0.7-5.9,0.7
				c-4.4,0-8.4-0.7-11.8-2.2c-3.5-1.5-6.7-3.5-9.1-6.2s-4.4-5.9-5.9-9.6s-2-7.6-2-12.1c0-4.2,0.7-7.9,2-11.8c1.2-3.7,3-7.2,5.4-9.9
				c2.2-3,5.2-5.2,8.4-6.9s7.2-2.7,11.1-2.7c3.7,0,7.4,0.5,10.6,1.7s5.9,3.2,7.9,5.9h0.2v-38.7h18V199.9z M61.5,170.8
				c0-4.4-1.2-7.9-3.7-10.6c-2.5-2.7-6.2-4.2-10.6-4.2s-8.1,1.5-10.6,4.2s-3.7,6.4-3.7,10.6c0,4.4,1.2,7.9,3.7,10.6
				c2.5,2.7,6.2,4.2,10.6,4.2s8.1-1.5,10.6-4.2C60.2,178.7,61.5,175.2,61.5,170.8z"/>
			<path d="M148.1,189.8c-3,3.7-6.7,6.7-10.9,8.6c-4.4,2-9.1,3-13.8,3c-4.4,0-8.6-0.7-12.8-2.2c-3.9-1.5-7.4-3.5-10.4-6.2
				s-5.2-5.9-6.9-9.6s-2.5-7.9-2.5-12.6s0.7-8.9,2.5-12.6s3.9-6.9,6.9-9.6s6.4-4.7,10.4-6.2c3.9-1.5,8.1-2.2,12.8-2.2
				c4.2,0,7.9,0.7,11.3,2.2c3.5,1.5,6.4,3.5,8.6,6.2s4.2,5.9,5.4,9.6c1.2,3.7,2,7.9,2,12.6v5.7h-41.9c0.7,3.5,2.2,6.2,4.7,8.1
				c2.5,2,5.4,3,8.9,3c3,0,5.4-0.7,7.6-2c2.2-1.2,3.9-3,5.4-5.2L148.1,189.8z M132.8,164.1c0-3-1-5.7-3-7.9s-4.7-3.2-8.1-3.2
				c-2,0-3.7,0.2-5.4,1c-1.5,0.7-2.7,1.5-3.9,2.5c-1,1-2,2.2-2.5,3.5c-0.5,1.2-1,2.7-1,4.2L132.8,164.1L132.8,164.1z"/>
			<path d="M194.9,158.7c-2.7-3.2-6.2-4.9-10.6-4.9c-1.5,0-3,0.2-4.4,1c-1.5,0.7-2.2,2-2.2,3.7c0,1.5,0.7,2.5,2.2,3.2
				s3.5,1.2,5.7,1.7s4.7,1,7.4,1.7c2.7,0.5,5.2,1.5,7.4,2.7s4.2,3,5.7,5.2s2.2,5.2,2.2,8.9s-0.7,6.9-2.5,9.4
				c-1.7,2.5-3.7,4.4-6.4,5.9s-5.4,2.5-8.6,3.2c-3.2,0.5-6.4,1-9.6,1c-4.2,0-8.1-0.5-12.3-1.7s-7.6-3.2-10.6-6.2l10.9-12.1
				c1.7,2,3.5,3.7,5.7,4.7s4.4,1.7,7.2,1.7c2,0,3.9-0.2,5.7-1c1.7-0.5,2.5-1.7,2.5-3.2s-0.7-2.7-2.2-3.5c-1.5-0.7-3.5-1.5-5.7-2
				s-4.7-1-7.4-1.7c-2.7-0.5-5.2-1.5-7.4-2.7s-4.2-3-5.7-5.2s-2.2-5.2-2.2-8.9c0-3.5,0.7-6.4,2.2-8.9s3.2-4.4,5.4-6.2
				c2.2-1.7,4.9-2.7,7.9-3.5c3-0.7,5.9-1.2,9.1-1.2c3.9,0,7.6,0.5,11.6,1.7c3.9,1.2,7.2,3.2,10.1,5.9L194.9,158.7z"/>
			<path d="M216.4,122.9c0-3,1-5.4,3-7.4s4.4-3,7.4-3s5.4,1,7.4,3s3,4.4,3,7.4s-1,5.4-3,7.4s-4.4,3-7.4,3s-5.4-1-7.4-3
				S216.4,125.9,216.4,122.9z M217.9,141.4h18v58.5h-18V141.4z"/>
			<path d="M310.6,195c0,11.1-2.7,19.5-8.4,25.2c-5.7,5.7-14.1,8.6-25.4,8.6c-5.2,0-10.4-0.5-15.5-1.7c-5.2-1.2-9.6-3.5-14.1-6.9
				l10.1-15c2.7,2.2,5.7,4.2,8.9,5.4c3.2,1.5,6.4,2,10.1,2c5.4,0,9.6-1.2,12.3-3.9c2.7-2.7,3.9-6.2,3.9-10.4v-5.7h-0.2
				c-2,2.7-4.7,4.7-7.9,5.9c-3.2,1.2-5.9,1.7-8.6,1.7c-4.4,0-8.4-0.7-11.8-2.2c-3.5-1.5-6.7-3.5-9.1-6.2c-2.5-2.7-4.4-5.9-5.9-9.6
				c-1.5-3.7-2-7.6-2-12.1c0-3.9,0.7-7.6,2-11.3c1.2-3.7,3-6.9,5.4-9.9s5.2-5.2,8.4-6.9c3.2-1.7,7.2-2.7,11.1-2.7
				c2.5,0,4.9,0.2,7.2,0.7c2.2,0.5,3.9,1.2,5.7,2.2s3.2,2,4.4,3c1.2,1,2.2,2.2,3,3.2h0.2v-7.6h16.5v54.3L310.6,195L310.6,195z
				 M265,170.3c0,2,0.2,3.7,1,5.4c0.7,1.7,1.7,3.2,3,4.7c1.2,1.2,3,2.5,4.7,3.2s3.7,1.2,5.7,1.2s3.9-0.5,5.7-1.2
				c1.7-0.7,3.2-2,4.7-3.2c1.2-1.2,2.5-3,3-4.7c0.7-1.7,1-3.5,1-5.4s-0.2-3.7-1-5.4c-0.7-1.7-1.7-3.2-3-4.7c-1.2-1.2-3-2.5-4.7-3.2
				s-3.7-1.2-5.7-1.2s-3.9,0.5-5.7,1.2c-1.7,0.7-3.2,2-4.7,3.2c-1.2,1.2-2.5,3-3,4.7C265.2,166.6,265,168.3,265,170.3z"/>
			<path d="M324.9,141.4h17.3v7.9h0.2c0.5-1.2,1.5-2.2,2.5-3.5c1-1.2,2.2-2.2,3.7-3c1.5-1,3.2-1.7,4.9-2.2c2-0.5,3.9-0.7,5.9-0.7
				c4.7,0,8.4,0.7,11.1,2.2s4.9,3.5,6.7,5.9c1.5,2.5,2.7,5.4,3.2,8.9s0.7,7.2,0.7,10.9v32.1h-17.8v-28.6c0-1.7,0-3.5-0.2-5.2
				s-0.5-3.5-1-4.9c-0.5-1.5-1.5-2.7-2.7-3.7s-3-1.5-5.4-1.5c-2.2,0-4.2,0.5-5.7,1.2s-2.5,2-3.2,3.5s-1.2,3-1.5,4.7
				c-0.2,1.7-0.2,3.7-0.2,5.4v29.1h-18v-58.5H324.9z"/>
		</g>
	</g>
	<g>
		<path fill="#FFFFFF" d="M391.5,126.6c0-0.5,0-0.7,0-1.2s0-1,0.2-1.5c0.2-0.7,0.7-1.2,1-2c0.2-0.5,0.7-1.2,1.2-1.7
			c0,0,0.2-0.2,0.5-0.5c0.2-0.2,0.5-0.5,0.7-0.5c0.2-0.2,0.5-0.5,0.7-0.5s0.5-0.2,0.5-0.2c0.2-0.2,0.7-0.5,1-0.5
			c0.5,0,0.7-0.2,1.2-0.2s0.7,0,1.2,0s0.7,0,1.2,0s1,0,1.2,0.2s0.7,0.2,1.2,0.5c0.2,0,0.5,0.2,1,0.5c0.5,0.2,0.7,0.5,1,0.7
			c1.2,0.7,2.2,2,3.2,3.2s1.5,2.7,1.5,4.2c0,1,0,1.7,0,2.5c0,0.7-0.2,1.2-0.5,2c-0.2,0.5-0.5,1-1,1.7s-1,1-1.7,1.7
			c-0.7,0.5-1.5,1-2.5,1.5s-2,0.7-2.7,0.7c0,0-0.2,0-0.5,0c-0.2,0-0.5,0-0.7,0s-0.5,0-0.7,0s-0.2,0-0.5,0c-0.2,0-0.2,0-0.5-0.2
			c-0.2,0-0.5-0.2-0.7-0.2s-0.5-0.2-0.7-0.2s-0.2,0-0.5-0.2c0,0-0.2,0-0.5-0.2c-0.2,0-0.5-0.2-0.7-0.2s-0.5-0.2-0.7-0.2
			s-0.5-0.2-0.5-0.2c-0.7-0.5-1.2-1.2-1.7-1.7s-0.7-1.2-1-1.7c-0.2-0.5-0.5-1.2-0.5-2C391.5,128.3,391.5,127.6,391.5,126.6z
			 M392.8,162.1c0-0.2,0-0.7,0-1.7s0-2,0-3c0-1.2,0-2.2,0-3.5c0-1.2,0-2,0-2.7c0,0,0-0.2,0-0.5c0-0.2,0-0.5,0-0.7s0-0.5,0-0.7
			s0-0.5,0-0.5v-5.7c0.2-0.2,0.5-0.5,1-0.7s1-0.2,1.2-0.2h13.3c0.2,0,0.5,0.2,0.7,0.2s0.5,0.2,0.5,0.2s0.2,0.5,0.2,1s0.2,1,0.2,2
			c0,0,0,0.2,0,0.5s0,0.5,0,0.7s0,0.5,0,0.7s0,0.2,0,0.5c0,0.5,0,1.2,0,2.5c0,1.2,0,2.5,0.2,3.7s0,2.5,0.2,3.7c0,1.2,0,2,0,2.5
			c0,0.2,0,0.7,0,1.7c0,0.7,0.2,1.7,0.2,2.7s0.2,2,0.2,2.7c0,1,0,1.5,0,1.7s0,0.7,0,1.5c0,0.7,0,1.7,0.2,2.7c0,1,0,2.2,0.2,3.2
			c0,1.2,0,2.2,0.2,3.2c0,1,0,2,0.2,2.7c0,0.7,0,1.2,0,1.5c0,0.5,0,1.2,0,2.2s0,2,0,3.2c0,1,0,2.2,0,3.2s0,1.7,0.2,2.2v0.7
			c0.2,1.2,0,2.2-0.2,2.7c-0.2,0.7-1,1-2,0.7h-14.6c-0.7,0-1.2-0.2-1.5-0.7c-0.2-0.5-0.5-1-0.5-1.7s0-1.5,0-2.2s0-1.7-0.2-2.7
			c0-0.7,0-1.5,0-2.2s0-1.7,0-2.5s0-1.7,0-2.5s0-1.5,0-2.2c0-1.7-0.2-3.5-0.2-5.2c0-1.5,0-3.2-0.2-4.7c0-1.5,0-3.2,0-4.7
			C392.8,165.6,392.8,163.9,392.8,162.1z"/>
		<path fill="#FFFFFF" d="M422.1,199.4c-0.5,0-0.7-0.2-1-0.5c-0.2-0.2-0.5-0.5-0.7-0.7s-0.2-0.5-0.2-0.7s0-0.5,0-0.7s0-0.5,0-0.7
			c0-2.2,0-4.7,0-6.9s0-4.7-0.2-6.9c0-2.2,0-4.7,0-6.9s0.2-4.7,0.2-6.9l-0.2-2.2c0-0.2,0-0.5,0-0.7s0-0.5,0-0.5c0-0.2,0-0.5,0-0.5
			v-2.7c0-0.2,0-0.5,0-1.2s0-1.5,0-2.2s0-1.5,0-2.2s0-1.2,0-1.2c0-0.2,0-0.5,0-1.2s0-1.5,0.2-2.2s0-1.5,0-2.2s0-1,0-1.2
			c0-0.7,0-1.5,0-2.2s-0.2-1.7-0.2-2.5v-1.7c0-0.2,0-0.7,0.2-0.7s0.5-0.2,0.7-0.2s0.5,0,0.7,0s0.2,0,0.2,0s0.2,0,0.5,0
			c0.2,0,0.5,0,0.7,0s0.5,0,0.7,0s0.5,0,0.5,0c0.5,0,1.2,0,1.7,0s1,0,1.5,0s1,0,1.5,0s1,0,1.7,0h0.5h0.2c0.2,0,0.2,0,0.5,0
			c0.2,0,0.5,0,0.5,0c0.2,0,0.2,0,0.5,0c0.7,0.2,1,0.2,1.5,0.5c0.2,0.2,0.5,0.5,0.5,0.7s0,0.7,0.2,1c0,0.5,0,1,0.2,1.5
			c1.2-1.2,2.7-2.2,4.2-3c1.5-0.7,3-1.2,4.4-1.7s3.2-0.7,4.7-0.7c1.7,0,3.2,0,4.9,0c0.5,0,1,0,1.5,0.2c0.5,0,1,0.2,1.5,0.5
			c0.5,0.2,1,0.2,1.5,0.5c0.5,0.2,1,0.5,1.5,0.7c0.2,0.2,0.7,0.5,1,0.7c0.5,0.2,1,0.7,1.2,1c0.5,0.2,0.7,0.7,1.2,1s0.5,0.5,0.5,0.5
			c0.7,0.7,1.7,1.5,2.2,2.2c0.7,0.7,1.2,1.7,1.7,2.7s1,2,1.2,3s0.5,2,0.7,3.2c0,0,0.2,0.5,0.2,1s0.2,1,0.2,1.7s0.2,1.2,0.2,2
			c0,0.7,0,1.2,0,1.5v0.7c0,0,0,0.5,0,1s0,1,0,1.7c0,0.5,0,1.2,0,1.7s0,0.7,0,1v7.6v1.7c0,0,0,0.2,0,0.5s0,0.5,0,1s0,0.5,0,1
			c0,0.2,0,0.5,0,0.5v1c0,0.5,0,1.2,0,2.2s0,2,0,3s0,2,0,3.2c0,1,0,2,0,3s0,1.7,0,2.2s0,1,0,1.2c0,0,0,0.2,0,0.5c0,0.2,0,0.5,0,1
			s0,0.7,0,1c0,0.2,0,0.5,0,0.5v0.5c0,0.2-0.2,0.5-0.5,0.7c-0.2,0.2-0.7,0.2-1,0.2c0,0-0.2,0-0.5,0s-0.2,0-0.5,0c-0.2,0-0.2,0-0.5,0
			c-0.2,0-0.2,0-0.2,0s-0.2,0-0.7,0s-0.7,0-1.2,0s-0.7,0-1.2,0c-0.2,0-0.5,0-0.7,0c-1.5,0-2.7,0.2-3.9,0.2s-2.7,0.2-4.2,0
			c-0.5,0-1-0.2-1.2-0.5c-0.2-0.2-0.2-0.5-0.5-1c0-0.2,0-0.7,0-1.2s0-0.7,0-1.2c0-0.2,0-0.5,0-1s0-1.2,0-2s0-1.5,0-2.5
			c0-0.7,0-1.7,0-2.5c0-0.7,0-1.5,0-2s0-1,0-1V175c0-1,0-2.2,0-3.7s-0.2-3-0.5-4.4c-0.2-1.5-0.5-3-1-4.4c-0.5-1.5-1-2.7-1.5-3.9
			s-1.2-2-2-2.7c-0.7-0.7-1.7-1-2.5-0.7h-1.7c-1,0-2,0-2.7,0.5c-0.7,0.2-1.5,0.7-2.5,1.2c0,0,0,0-0.2,0v0.2
			c-0.7,0.7-1.5,1.5-2.2,2.7c-0.5,1.2-1,2.5-1.5,3.9c-0.5,1.5-0.7,3-1,4.7c-0.2,1.7-0.5,3.5-0.7,4.9c0,0.2,0,0.5-0.2,1.2
			c0,0.5-0.2,1.2-0.2,2c0,0.7-0.2,1.5-0.2,2.2s0,1.2,0,1.7c0,0,0,0.2,0,0.5s0,0.5,0,1s0,0.7,0,1.2s0,0.7,0,1c0,0.2,0,0.5,0,0.7
			s0,0.7,0,1c0,0.5,0,0.7,0,1c0,0.2,0,0.5,0,0.7v6.9c0,0,0,0.2,0,0.5s0,0.5,0,0.5s0,0,0,0.2s0,0.2,0,0.5s0,0.2,0,0.5
			c0,0.2,0,0.2,0,0.2c0,0.2,0,0.5,0,1c0,0.2,0,0.7,0,1s-0.2,0.5-0.5,0.7c-0.2,0.2-0.5,0.2-1,0.2c-0.7,0-1.5,0-2.2,0s-1.7,0-2.7,0
			s-2,0-2.7,0C423.8,199.4,423.1,199.4,422.1,199.4z"/>
		<path fill="#FFFFFF" d="M513.6,193c0,0-0.2,0-0.2-0.2s-0.2-0.2-0.5-0.5c-0.2-0.2-0.2-0.2-0.5-0.5c-0.2-0.2-0.2-0.2-0.2-0.2
			s-0.2-0.2-0.2-0.5c-0.2-0.2-0.2-0.5-0.2-0.5c-0.2-0.2-0.7-0.7-1.2-1.5c-0.5-0.7-1-1.5-1.7-2.5s-1.2-1.7-1.7-2.5s-1-1.2-1.2-1.5
			l-1-0.7l-0.2-0.2c-0.2-0.2-0.2-0.2-0.2-0.5c-0.2-0.2-0.7-0.7-1.5-1.5c-0.7-0.7-1.5-1.5-2.2-2.2s-1.5-1.5-2.2-2.2s-1.2-1.2-1.5-1.5
			v1c0,1,0.2,2,0.2,3s0,2,0.2,3.2s0,2,0,3s0,2,0.2,3c0,1.7,0.2,3.5,0.5,5.2s0.2,3.5,0.2,5.2c0,1,0,1.5-0.2,1.7s-0.7,0.5-1,0.5
			c-1,0-2,0-3,0s-2,0-3-0.2c-1,0-2,0-3,0c-0.7,0-1.7,0.2-2.5,0.2c-0.7,0-1.7,0.2-2.5,0.2c-0.7,0-2,0-3-0.2c-0.2,0-0.2-0.2-0.5-0.2
			s-0.2-0.2-0.2-0.5v-0.2v-0.2c0-0.2,0-0.2,0-0.5s0-0.2,0-0.5c0-0.2,0-0.2,0-0.2l-0.2-21l-0.2-8.1v-15.5c0-0.2,0-0.7,0-1.7
			s0-2,0-3.2s0-2.5,0-3.9s0-2.7,0-3.9s0-2.2,0-3.2s0-1.5,0-1.7c0-1.7,0-3.7,0-5.4s0-3.7,0-5.4v-1.4c0-0.7,0-1.5,0.2-1.7
			s0.7-0.5,1.2-0.7h1c1.2,0,2.7,0,3.9,0c1.2,0,2.7,0,3.9,0c0.7,0,1.5,0,2,0c0.7,0,1.5,0,2,0s1.2,0,1.7,0.2c0.5,0,1,0.2,1.7,0.7
			c0,0.2,0.2,0.5,0.2,0.5l0.2,0.2v0.2c0,0.2,0,0.2,0,0.5c0,0,0,0.2-0.2,0.5v3c0,0.2,0,0.5,0,0.7s0,0.5,0,0.7s0,0.5,0,0.7
			s0,0.2,0,0.5v0.2c0,0.2,0,0.5,0,0.5c0,0.2,0,0.5,0,0.5c0,0.2,0,0.2,0,0.2c0,0.2,0,0.5,0,1.2s0,1.2,0,2c0,0.7,0,1.2,0,2
			c0,0.5,0,1,0,1c0,0.2,0,0.5,0,1s0,1,0,1.5s0,1,0,1.5s0,0.7,0,1c0,0,0,0.2,0,0.7s-0.2,1-0.2,1.5s-0.2,1-0.2,1.5s0,0.7,0,0.7v0.5
			c0,2.2,0.2,4.2,0.5,5.9c0,1.7,0.2,3.7,0.5,5.2c0,0,0.2-0.2,0.5-0.7s0.7-0.7,1.2-1.2s1-1,1.5-1.5s1-1,1.5-1.5s0.7-1,1.2-1.2
			s0.5-0.5,0.5-0.7c0,0,0.2-0.2,0.7-0.7s1-1,1.5-1.5s1-1,1.5-1.5s0.7-0.7,0.7-0.7c0.2-0.2,0.5-0.5,0.7-1c0.5-0.5,0.7-1,1.2-1.5
			s0.7-1,1.2-1.5s0.7-0.7,1-1l0.2-0.2c0.2-0.2,0.5-0.2,0.5-0.5s0.5-0.5,0.5-0.5c0.2-0.2,0.2-0.2,0.2-0.2s0.2-0.2,0.7-0.5
			c0.2-0.2,0.7-0.7,1-1c0.2-0.5,0.7-0.7,1-1c0.2-0.2,0.5-0.5,0.5-0.5c0.2,0,0.2,0,0.5,0c0.2,0,0.5,0.2,0.5,0h0.5l13.3,3
			c0,0.2,0.2,0.2,0.7,0.2c0.2,0,0.7,0,1,0.2c0.2,0.2,0.5,0,0.7,0.2c0.2,0,0.2,0.2,0.2,0.5v0.2c-0.7,1.2-1.5,2.2-2,3.2
			c-0.7,1-1.5,1.7-2.5,2.7c-0.7,0.7-1.5,1.2-2,2s-1.2,1.5-2,2l-13.3,12.8l0,0c0,0-0.2,0.2-0.5,0.5c-0.2,0.2-0.5,0.2-0.5,0.5
			c-0.2,0.2-0.5,0.5-0.5,0.5c-0.2,0.2-0.2,0.2-0.5,0.2c0,0,0,0,0,0.2s0.2,0.5,0.5,1c0.2,0.5,0.7,0.7,1,1c0,0.2,0.2,0.5,0.7,1
			s0.7,1,1.2,1.7c0.5,0.5,1,1.2,1.5,1.7s1,1,1.2,1.2c0.2,0.5,0.7,1,1,1.2s0.7,0.7,1.2,1c0.5,0.2,0.7,0.7,1.2,1
			c0.5,0.2,0.7,0.7,1.2,1.2c0,0,0.2,0.2,0.5,0.7c0.2,0.5,0.7,0.7,1,1.2c0.5,0.5,0.7,1,1,1.2c0.2,0.2,0.5,0.7,0.7,0.7
			c0,0,0.2,0.2,0.5,0.7c0.2,0.2,0.5,0.7,1,1c0.2,0.5,0.7,0.7,1,1c0.2,0.2,0.5,0.5,0.5,0.7c0,0,0,0.2,0.2,0.5
			c0.2,0.2,0.2,0.5,0.5,0.7c0.2,0.2,0.2,0.5,0.5,0.7c0.2,0.2,0.2,0.2,0.2,0.5c0.5,0.7,1.2,1.2,1.7,2c0.5,0.5,1.2,1.2,1.7,1.7
			s1.2,1.2,1.7,1.7s1.2,1.2,1.7,2v0.5c0.2,0.5,0.2,1-0.2,1.5c-0.5,0.2-1,0.5-1.5,0.5c-0.2,0-0.5,0-1,0.2c-0.5,0-1,0.2-1.5,0.2
			s-1,0-1.5,0.2c-0.5,0-0.7,0-1,0c-0.2,0-0.5,0-0.7,0c-0.5,0-0.7,0-0.7,0.2l-3.5,0.5c-0.5,0-1,0.2-1.2,0.2s-0.5,0.2-0.7,0.2
			s-0.5,0-0.7,0.2s-0.7,0.2-1,0.2c-0.5,0.5-1,0.5-1.5,0.2c-0.5-0.2-0.7-0.5-1-1c0,0,0-0.2-0.2-0.2c0,0,0,0-0.2-0.2c0,0,0,0-0.2,0
			L513.6,193z"/>
	</g>
</g>
</svg>
