<?xml version="1.0" encoding="utf-8"?>
<!-- Generator: Adobe Illustrator 18.1.1, SVG Export Plug-In . SVG Version: 6.00 Build 0)  -->
<svg version="1.1" id="Layer_1" xmlns="http://www.w3.org/2000/svg" xmlns:xlink="http://www.w3.org/1999/xlink" x="0px" y="0px"
	 viewBox="0 0 241.3 253.2" enable-background="new 0 0 241.3 253.2" xml:space="preserve">
<g>
	<path fill-rule="evenodd" clip-rule="evenodd" fill="#EE2A7B" d="M160.2,225c-0.3-0.3-0.6-0.5-0.9-0.8c0.5-0.5,0.9-1.7,1.6-0.7
		C160.8,224,160.6,224.5,160.2,225z"/>
	<path fill-rule="evenodd" clip-rule="evenodd" fill="#EE2A7B" d="M126.3,252.7c-0.9-0.4-1.7-0.7-2.7-1.7c0.5-0.6,1-1.2,1.5-1.8
		C126.8,249.6,128.1,251.3,126.3,252.7z"/>
	<path fill-rule="evenodd" clip-rule="evenodd" fill="#EE2A7B" d="M152.4,220.1c-0.6,0-1.1-0.3-1.8-1c0.4-1.1,0.7-1.5,1.7-2.1
		C153.1,218,153.4,219,152.4,220.1z"/>
	<path fill-rule="evenodd" clip-rule="evenodd" fill="#EE2A7B" d="M111.6,240.1c0.3-1.2,1-1.5,2.1-0.7
		C113.9,240.4,112.6,241.4,111.6,240.1z"/>
	<path fill-rule="evenodd" clip-rule="evenodd" fill="#EE2A7B" d="M205.7,128.2c-1,1.5-2.2,1.8-3.5,0.6c0.6-1.1,1.3-1.2,2-1.8
		C204.7,127.4,205.2,127.8,205.7,128.2z"/>
	<path fill-rule="evenodd" clip-rule="evenodd" fill="#EE2A7B" d="M108.7,238.1c-1,0.4-1.9,1.6-3.1,0c-0.1-0.8,1-2,1.7-2.1
		C108.6,236.7,108.3,237.4,108.7,238.1z"/>
	<path fill-rule="evenodd" clip-rule="evenodd" fill="#EE2A7B" d="M210.4,71.3c0.2,0.2,0.4,0.3,0.6,0.5c0.1,1.3-1.6,2.2-2.5,2.4
		c-0.9-0.8,0-1.8-0.8-2.7C208.5,70.9,209.6,72,210.4,71.3z"/>
	<path fill-rule="evenodd" clip-rule="evenodd" fill="#EE2A7B" d="M205.7,73.8c-0.6-0.7-1-1.4-1.3-2.1c1-0.3,1.9-1.2,3.1,0
		C207.5,72.8,206.4,73.3,205.7,73.8z"/>
	<path fill-rule="evenodd" clip-rule="evenodd" fill="#EE2A7B" d="M86.5,230.8c-0.8-0.5-1.1-1-1.3-1.6c0.7-0.9,1.5-1.1,2.3-1.6
		C88.8,228.6,87.8,230.5,86.5,230.8z"/>
	<path fill-rule="evenodd" clip-rule="evenodd" fill="#EE2A7B" d="M96.4,216.5c-0.6,0.9-1.2,0.6-1.9-0.1c0.6-0.7,0.2-1.3,1.2-2
		C96.2,215,95.3,215.8,96.4,216.5z"/>
	<path fill-rule="evenodd" clip-rule="evenodd" fill="#EE2A7B" d="M87.9,222.9c-1.3-1-0.4-2.2,0.7-3.4
		C90.1,220.9,89.9,222.8,87.9,222.9z"/>
	<path fill-rule="evenodd" clip-rule="evenodd" fill="#EE2A7B" d="M60.5,220.7c-1.7-1.2,1.4-3.7,2.4-3.5
		C64.1,218.8,62.3,220.9,60.5,220.7z"/>
	<path fill-rule="evenodd" clip-rule="evenodd" fill="#EE2A7B" d="M44.9,209.2c-0.8,0.9-1.6,2.3-2.5,2.4c-0.9-0.8-0.6-1.6-0.5-2.4
		C42.8,208.3,43.8,208.7,44.9,209.2z"/>
	<path fill-rule="evenodd" clip-rule="evenodd" fill="#EE2A7B" d="M147.2,49.9c-0.3-0.3-0.6-0.5-0.9-0.8c0.4-0.7,0.9-0.6,1.3-0.9
		C148.1,48.7,147.9,49.3,147.2,49.9z"/>
	<path fill-rule="evenodd" clip-rule="evenodd" fill="#EE2A7B" d="M146.5,48.3c-0.5-0.4-1-0.4-1.4-0.2c-2.5-2.3,1.4-5.1,0.6-7.5
		c1.6-2.3,3.4-3,5.2-3.2C152.2,41.5,147.6,45,146.5,48.3z"/>
	<path fill-rule="evenodd" clip-rule="evenodd" fill="#EE2A7B" d="M42.1,170.1c0.3-1.7,2-2.7,3.4-1.6
		C45.4,170.4,43.9,171.4,42.1,170.1z"/>
	<path fill-rule="evenodd" clip-rule="evenodd" fill="#EE2A7B" d="M142.4,4.5c-0.2,0.3-0.5,0.6-0.7,0.9c-0.9-0.6-1.2-1.2-0.5-1.9
		C141.5,3.8,141.9,4.2,142.4,4.5z"/>
	<path fill-rule="evenodd" clip-rule="evenodd" fill="#EE2A7B" d="M24.7,175.2c-0.9-0.8-1.8-1.5-2.7-2.3c1.2-0.7,2.8-0.5,3.4,0.8
		c-0.2,0.4-0.7,0.8-0.4,1.1C24.9,175,24.8,175.1,24.7,175.2z"/>
	<path fill-rule="evenodd" clip-rule="evenodd" fill="#EE2A7B" d="M32.9,128.6c-2.7,2.4-5.8,1.2-8.8,0.7c0.5-2.4,3.7-2,5.1-3.7
		C28.8,128.3,32.6,126,32.9,128.6z"/>
	<path fill-rule="evenodd" clip-rule="evenodd" fill="#EE2A7B" d="M39.3,105C40.3,100.9,43,106.9,39.3,105L39.3,105z"/>
	<path fill-rule="evenodd" clip-rule="evenodd" fill="#EE2A7B" d="M17.8,132.6c-0.5-0.4-1-0.4-1.4-0.2c-0.3-1.3-0.6-2.5,0.7-3.9
		C19.1,128.7,19.7,131.1,17.8,132.6z"/>
	<path fill-rule="evenodd" clip-rule="evenodd" fill="#EE2A7B" d="M106,21.7c-0.8-1.4-0.3-2.4,1.4-2.9C108.4,20,107.5,21.8,106,21.7
		z"/>
	<path fill-rule="evenodd" clip-rule="evenodd" fill="#EE2A7B" d="M67.1,69.7c-0.2,0.4-0.5,0.5-0.8,0.3c-1.8-0.4-3.5-3-4.6-4.3
		c0.7-0.8,1.6-0.8,2.3-1.6C65.2,66.6,66.8,67.3,67.1,69.7z"/>
	<path fill-rule="evenodd" clip-rule="evenodd" fill="#EE2A7B" d="M62.8,71.7c-1,1.5-2.3,1-3.5,1.1c-0.1-3.1-4.9-3.9-7-5.8
		c0.6-1,0.2-1.9,0.3-2.8C57.3,63.6,60.6,68.3,62.8,71.7z"/>
	<path fill-rule="evenodd" clip-rule="evenodd" fill="#EE2A7B" d="M74.9,55.3c-0.6,0.8-1.2,0.5-1.8,1c-1-0.8-0.5-1.8,0.3-2.8
		C74.1,54.1,74.9,54.7,74.9,55.3z"/>
	<path fill-rule="evenodd" clip-rule="evenodd" fill="#EE2A7B" d="M61.3,59.4c-1.8-2.2-3.4-4.5-3-6.9C60.6,54.6,64.4,57,61.3,59.4z"
		/>
	<path fill-rule="evenodd" clip-rule="evenodd" fill="#EE2A7B" d="M3.8,128.4c-0.9,1.5-1.9,1.2-2.9,1.1c-0.6-1.1-1.8-2.1-0.9-3.2
		C1.2,126.5,2.5,127.1,3.8,128.4z"/>
	<path fill-rule="evenodd" clip-rule="evenodd" fill="#EE2A7B" d="M74.9,36.8c-0.6,0.7-1.1,1.4-1.7,2.1c-0.5-0.4-1-0.8-1.5-1.3
		c-0.4-0.6,1.2-1.4,0.6-2C73,34.8,74,36.2,74.9,36.8z"/>
	<path fill-rule="evenodd" clip-rule="evenodd" fill="#EE2A7B" d="M51.6,64.8c-0.9,0.2-1.8,0.7-2.8-0.3
		C49.6,63.2,51.4,64.1,51.6,64.8z"/>
	<path fill-rule="evenodd" clip-rule="evenodd" fill="#EE2A7B" d="M77.5,4.1c-0.6-1.4-2.6-2.7-1-4.3C78.5,0.3,78.6,2.5,77.5,4.1z"/>
	<path fill-rule="evenodd" clip-rule="evenodd" fill="#EE2A7B" d="M35.3,52.3c-0.9,1.2-1.8,1.9-3,0.5C32.6,51.4,34.7,50.7,35.3,52.3
		z"/>
	<path fill-rule="evenodd" clip-rule="evenodd" fill="#EE2A7B" d="M52.8,30c-0.7,0.8-1.6,0.8-2.5-0.1c-0.1-1.1,1-1.5,1.7-2.1
		C53.1,28.5,53,29.3,52.8,30z"/>
	<path fill-rule="evenodd" clip-rule="evenodd" fill="#EE2A7B" d="M22.5,65.2c-0.4-0.3-0.8-0.7-1.2-1c0.5-1,0.3-1.9,0.8-2.8
		c1.2,0.5,1.2,1.3,2.7,1.7C24.5,64.4,23.6,64.7,22.5,65.2z"/>
	<path fill-rule="evenodd" clip-rule="evenodd" fill="#EE2A7B" d="M40.6,29.3C42.9,25.9,43.6,32.4,40.6,29.3L40.6,29.3z"/>
	<path fill-rule="evenodd" clip-rule="evenodd" fill="#EE2A7B" d="M50.6,8.7c1.5-1.4,4.2-0.9,5.3,0.4C60.2,14.1,49,15.9,50.6,8.7z"
		/>
	<path fill-rule="evenodd" clip-rule="evenodd" fill="#EE2A7B" d="M46.2,25c-1.3,0.9-3-1.6-1.4-2.6C46.1,23.2,45.8,24.1,46.2,25z"/>
	<path fill-rule="evenodd" clip-rule="evenodd" fill="#EE2A7B" d="M16.5,89.3c1.8-3.4,5.8-1.2,8.9,0.4
		C24.6,95.2,17.8,93.4,16.5,89.3z"/>
	<path fill-rule="evenodd" clip-rule="evenodd" fill="#EE2A7B" d="M192.4,192.4c-3.8-2.9-3.9-7-9-8.9c-4.9,1.9-3.9,5.8-4.8,9.5
		c-1.8,1.3-3.9,0.1-5.9-0.4c-6.4,0.6-7,10.2-12.8,9.8c0.4-1.2-1.3-0.5-1.8-1.5c-4.6,0.9-5.7,3.6-7.2,8c-1,0.3-2,0.3-3,0.5
		c-2.4-2.2-4.6-3.7-6.5-0.9c-0.4,1,1.5,0.4,1.3,1.6c-1.5,2-2,3.8-3.8,5.8c-3.4-1-5.2-3.7-6.6-4.4c-0.1-1.3-0.3,0.7-1,1.2
		c-0.5-0.4-0.9-0.8-1-1.3c-3,1.5-8.1-0.4-11.1-0.2c4.4,1,0.2,8.9-4.3,3.9c0.4-1,0-2,1.1-3.1c-2.1-0.7-1-1.8-2.5-3.1
		c-2.5,0.7-5.1,0.2-7.5,2.8c-0.1-2.3-2.2-3.1-3.2-4.2c-4.2,1.4-6.1,7.8-10.3,6.9c-1-2,3.2-5.2,3.8-5.8c-1.3-0.1-2.5,1.2-3.8,0.9
		c-3.2-2.2-2.8-3.6-4.5-6.3c-0.8,0.6-1.5,1.3-2.4,0.5c0.4-1.7-0.5-3.5-1.9-4.5c-1.4-1.1-7.8-2.4-8.5-2.1c0.6-1.9-1-1.9-1.8-4
		c-2.7,0.6-4.5,1.3-7.7,0.6c-1.7,2.5-5,8.7-8.5,8.4c-1.2-4.8,8.3-7.6,8.7-12.3c-0.2-0.3-0.6-0.5-0.4-0.8c-1.8-0.9-10-0.5-4.8-6
		c-0.8-0.7-0.4-2.2-1.9-2.1c0.7-0.1,1.3-0.8,1.2-1.5c-4.4-3.6-6.4,1.4-10.1-3.9c0.6-2.5,1.6-3.5,3.3-5.8c-0.9-1.1-1.4,0.9-2.3-0.4
		c0.3-0.6,2.1-0.8,1.5-1.8c-1.5,2-1.7-1.1-0.5-1.9c-1.8-1.1-3.3,0.4-4.9,0.4c0.3-0.5,1-1,0.7-1.4c-1.6-0.6-4.5-3.7-7.3-3.6
		c0.9-0.6-1.6-1-0.7-1.6c0.2-0.3,0-0.6,0.2-0.8c1.9-2.1,5.5-1.3,6.5-3.5c1-2.1-1.6-3-2.2-5.3c-3.5,1.3-7.4-4.1-6.9-7.2
		c1-1,1.6-0.7,3.1-2.4c0.5-0.8-1.1-1.4-0.2-2.2c1.2-2.5,2.9,1,3.6,0c0-1.2-1.5-2.3-0.1-3.6c-3.1-0.5-3.3-2.4-5.7-1.8
		c2.4-2.3-0.8-2.9-0.2-4.7c3.5,0.1,3.1-2.1,6.1-2.4c0.9-2.7,0.3-3-2.5-5c-0.6-1.7-1.6-4.1-4.1-4.9c0.2-1.7,0.4-3.3,1.1-5
		c2.1,1.7,3.7-1.7,5.7-1.3c0.3-1.9-1-2.1-1.7-2.9c1.1-2.2,3.4-4.6,6.4-5.2c1-0.7-0.4-1.3,0.6-2c-1.2-0.4-2.1-1.9-3.1-3.1
		c1.1-1,0.2-1.9,0.8-2.8c1.2-0.5,2.4-1.4,3.7-1.9c-3.3-1.8-3.5-6.1-0.3-7.7c2.8,1.5,4,3.1,6.5,3.4c1.7-1.9,1.1-3.6,1.9-5.4
		c-7.4-3.4,1.1-9.3,4.4-5.9c1.9-1.2,2.2-1.9,4.1-3.1c-0.8-1.6,0.5-2.2,1.8-3.5c-0.7-2.7-0.3-5.5,2.4-8.5c2.3,1.7,4.1,1.7,5.4,4
		c0.4-2-0.6-1,1.7-2.6c-1.1-1.1-1.9,0.8-3.1,0c2-2.8,2.7-4.3,5.1-6.7c-0.5-1-0.4-2,0-3c1,0.1,1.9-1.1,3.1,0c0.1,1,0.7,2-0.5,3.1
		c5,2.5,10.2,1.6,15.3,0.7c0.4-2.2-0.3-6.5-3.2-6.6c0.2-3-3.5-5.8-1.2-9c2.8,1,3.2,3.7,5.7,4.2c-1.4,2.4-0.1,4.6,1,6.8
		c3.6,0,5.6,0.6,9.1,2c0.9-1.8,1.5-3.6,1.9-5.4c1.1-0.1,2.1-0.8,3.3-0.3c0.8,3.1,4.1,2.6,5,5.1c1.2-0.3,2.4-0.5,3.5-1.1
		c0.4,0.3-0.2,0.7,0.1,1.1c1.1,0.3,3-3,2.7-0.8c2.4-1.5,4-2.6,5.6-2.4c1.4-0.8-0.5-1.4,0.9-2.3c0.6,1.4,2.2,1.2,2.8,2.8
		c1.4-1.6,3.2,0.8,4.5-1.7c0.3,2.1,2.6,1.2,3.7,1.1c-0.8,2.1,1.4,2.6,2.7,4.7c0.8-1,1.6-2.2,2.6-1.3c-0.2,0.6-1.6,1.2-0.9,1.7
		c0.7-0.1,1.4-0.9,2.1-0.7c-0.7,1.4,3.2,2.4,4.1,2.4c1.3,0.5-0.8-0.8,0.4-1.1c0.9,1.1-0.6,2.4,0.7,3.5c2.6-0.7,6-2.6,7.6-3.6
		c0.2,1.1,0.3,2.2-0.2,3.3c0.5,0.6,0.9,0.1,1.4,0.2c-1.4,2.3-0.9,4.5-0.9,6.7c0.4-0.2,0.9-0.4,1.3-0.4c-1.2,0.6-0.6,0.9-0.6,2
		c1.3,0.3,2.7,1.2,4,0.8c-1.1,0.9,0.5,1.6,0.5,2.4c0.8,0,1.5-1.3,2.3-2.1c0.9,2.1,2.6-1,4.1-0.1c1,1,1.6,2.3,2.9,1.4
		c-1.6,2.6-0.3,3.4-1.1,5.6c-0.4-0.3-0.1-0.7-0.7-1c0.2,1.4-1.4,1.5-1.1,3.1c1.1-2.2,1.7,0.2,2.5,0.1c2.5-1.2,5.2-2.7,7.1-1.1
		c3.4,2.7-1.4,5.5-0.4,9.1c0.8-0.5,0.6-3,2-1.8c-1.6,1-0.4,0.9-1.4,2.3c0.6,1.1,2.3-0.5,2,0.7c-0.4-0.3-1.1,0.5-0.7,0.9
		c2.3,0.6,4.1,2.6,6.5,0.9c-1,2.1,1.8,0.9,0.9,3.2c2.9,1.4,3,5.8,4.6,9.3c-1.1,0.9-0.5,1.7-1.7,2.6c2.2,0.7-0.9,1.5,0.8,2.1
		c0.1,0.5-1.7,1-0.9,1.7c0.1,1.4,0.9-0.2,1.7,0.4c-1.8,2.1,1.6,1.9-0.7,3.9c0.9,1.2,1.4-0.5,2.2-0.2c0.1,3.6,5.4,3.9,5.9,5.9
		c1.2-0.1,1-2.2,2.6-1.3c-0.7,2.2-1.5,5.9-3.4,6.6c0.3-0.4,0.5-0.8-0.1-1.1c-6.8,4.1-6.4,11-2.5,15.9c5-2.3,8.7,5,4.4,7.1
		c0.4-0.5,0.9-1,0.1-1.4c-1.5,1.7-2.2,1.3-4.2,2.5c-0.2-2-2.2-0.6-3.2-1.1c-4,5.6-4.2,12.4,0.5,17.9c-0.6,1.9-0.6,3.7-1.6,5.6
		c0-1.9-4.5,1.8-4.9-1.5c-4.1,0-5.3,4.9-6.1,7.4c0.4-0.5,2.2-1.4,1.9-0.4c-2.6,4.6,1.2,7.5-1,11.7c2.2,0.9,2.2,2.8,4.3,1.6
		c0.7,1.1,1.8,2.2,1.8,3.4C193.5,191,193,191.7,192.4,192.4z"/>
	<path fill-rule="evenodd" clip-rule="evenodd" fill="#EE2A7B" d="M79.6,224.6c-0.3-2.5,3.4-4.4,5.8-4.8
		C85.7,223.8,82.7,224,79.6,224.6z"/>
	<path fill-rule="evenodd" clip-rule="evenodd" fill="#EE2A7B" d="M73.1,30.7c2.4-2.1,4.2-5,6.7-6.7c3.2-2.2,6.5-1.4,9.4-2
		c6.9,3.6,9.2,10,9.5,15.9c-2.2,6.6-8.4,10.4-14.3,10.1c-2.6-2.5-5.6-3.1-7.6-3.2C74.8,40,73.7,35.3,73.1,30.7z"/>
	<path fill-rule="evenodd" clip-rule="evenodd" fill="#EE2A7B" d="M201.5,176.4c3.6,0.7,6.1,3.2,9.9,6.3
		C208,181.5,204.7,179.3,201.5,176.4z"/>
	<path fill-rule="evenodd" clip-rule="evenodd" fill="#EE2A7B" d="M229,189.6c-0.2-1.7,3-3.4,4.3-1.4c-1.1,0.4-2.2,1.1-3.3,2
		C229.7,189.7,229.3,189.3,229,189.6z"/>
	<path fill-rule="evenodd" clip-rule="evenodd" fill="#EE2A7B" d="M101.3,33.1c-1.3-1.7-3.5-5.8-3.7-8.4
		C100.8,27.1,100.2,30.2,101.3,33.1z"/>
	<path fill-rule="evenodd" clip-rule="evenodd" fill="#EE2A7B" d="M91.7,19.9c-1.6-0.9-1.3-2.3-1.7-4.1
		C91.8,15.4,90.5,18.7,91.7,19.9z"/>
	<path fill-rule="evenodd" clip-rule="evenodd" fill="#EE2A7B" d="M228.6,166.3c4.2,2.1,8.5,1.6,12.6,4.8c-2.3,2.1-4.4-2.1-6.7-0.5
		C233.5,167.8,230.5,168.5,228.6,166.3z"/>
	<path fill-rule="evenodd" clip-rule="evenodd" fill="#EE2A7B" d="M88.3,13.4c0.4-0.3,0.4-0.5,0.3-0.8c0.7-0.5,1.3,1.1,1.3,1.4
		C89.3,14.1,88.8,13.9,88.3,13.4z"/>
	<path fill-rule="evenodd" clip-rule="evenodd" fill="#EE2A7B" d="M148.6,39.9c-0.5-3.8,1.1-7.6,1.8-11.4c-1-0.8-0.4,1.7-1.3,0.2
		c1.5-1.9,4-3.5,5.4-0.3c-1.1,0.8-1.4,1.7-0.6,2.6C149.7,32.1,151.6,37.1,148.6,39.9z"/>
	<path fill-rule="evenodd" clip-rule="evenodd" fill="#EE2A7B" d="M145.9,34.2c-0.6-1.3-1-2.5,0.2-3.7C147,31.7,146.6,33,145.9,34.2
		z"/>
	<path fill-rule="evenodd" clip-rule="evenodd" fill="#EE2A7B" d="M155.3,26.6c-0.7-2.2,1.3-4.2,2.4-6.3
		C158.7,22.4,155.9,24.4,155.3,26.6z"/>
	<path fill-rule="evenodd" clip-rule="evenodd" fill="#EE2A7B" d="M141,9.9c-0.5-0.7-1-1.5,0.1-2.1C141.2,8.5,142,9.3,141,9.9z"/>
	<path fill-rule="evenodd" clip-rule="evenodd" fill="#EE2A7B" d="M212.8,88c-0.7,0.4-2.3-1.5-0.7-1.9
		C213.1,86.7,212.4,87.3,212.8,88z"/>
	<path fill-rule="evenodd" clip-rule="evenodd" fill="#EE2A7B" d="M178,44.2c-4,9.8-15.6,4.4-14.3-3.3c3.4-6.7,12.3-3.7,12.7,2.7
		C176.8,44.1,178.5,43.2,178,44.2z"/>
	<path fill-rule="evenodd" clip-rule="evenodd" fill="#EE2A7B" d="M211.6,70c-0.3-2.2,3.4-3.7,4.6-1.7c0.2,0.5-1,1-0.6,1.6
		C214.3,70.8,213,70,211.6,70z"/>
	<path fill-rule="evenodd" clip-rule="evenodd" fill="#EE2A7B" d="M192.3,21.3c5.5,2.1,6.7,8.8,2.8,10.8
		C188.6,35.2,182.4,22.8,192.3,21.3z"/>
	<path fill-rule="evenodd" clip-rule="evenodd" fill="#EE2A7B" d="M16.7,142.9c4.7-0.6,9.3-0.3,13.9-1c0.3,1.2-3,0-2.7,1.5
		C24.3,142.5,19.3,145.9,16.7,142.9z"/>
	<path fill-rule="evenodd" clip-rule="evenodd" fill="#EE2A7B" d="M97.7,225.8c-2-1.8,0.7-5.6,1.1-8.2
		C99.5,219.3,98.6,223.3,97.7,225.8z"/>
	<path fill-rule="evenodd" clip-rule="evenodd" fill="#EE2A7B" d="M28.5,37.6c0.4-0.8,0-1.6,0.9-2.4c2.4,2.9,5.5,9.4,9.3,14
		c0.3,0.8-0.4,1.4-0.3,0.3c-3.1-4.5-5.4-5.7-7.1-9.9C30.5,38,29.4,39.2,28.5,37.6z"/>
	<path fill-rule="evenodd" clip-rule="evenodd" fill="#EE2A7B" d="M218.4,187c-2.6-0.1-4.2-1.6-5.7-3.4c-1.4-1.7,2.6,0.6,4.2,1.8
		C217.5,185.8,217.9,186.6,218.4,187z"/>
	<path fill-rule="evenodd" clip-rule="evenodd" fill="#EE2A7B" d="M88.9,11.8c-0.6-0.1-2.2-2.6-1.2-3.5
		C88.6,9.5,88.4,10.6,88.9,11.8z"/>
	<path fill-rule="evenodd" clip-rule="evenodd" fill="#EE2A7B" d="M224.2,116.5c1.5-0.8,5.2-1.3,7.5-0.8
		C229.2,117.2,226.8,115.9,224.2,116.5z"/>
	<path fill-rule="evenodd" clip-rule="evenodd" fill="#EE2A7B" d="M142.5,19.4c-1-0.8-1.3-3.8-0.8-5.4
		C141.9,15.8,142.3,17.6,142.5,19.4z"/>
	<path fill-rule="evenodd" clip-rule="evenodd" fill="#EE2A7B" d="M46.4,231.4c-0.4-0.8-0.9,0-1.4-0.6c-0.6-0.7,0.4-1.4,0.2-2.1
		c-0.9-1.2-2.4-1.8-3.7-2.3c0.6-0.2,1.2-0.3,1.9-0.9c0.2-0.8-0.5-1.6-0.6-2.4c1.9-1.7,1-3.6,0.9-5.4c-0.5-0.5-1-0.4-1.5-1
		c0.9,0,1.7,1.3,2.6,0.8c1.5-1.6,1.1-3.2,3-4.1c0.3-0.8-0.7-1.6,0.2-2.4c1.1,0.8,2.3,1,3.5,0.3c0.5-0.5,0.1-1,0.5-1.5
		c0.9-0.2,1.9-0.2,2.4-1.4c0.8,0.1,0.8,1.1,1.5,1.6c1-0.1,2-1.2,3-1.4c0.6,0.4,1.3,0.6,1.9,1.5c0.6,0.2,1.2-0.5,1.8-0.3
		c0.5,0.3,0.3,0.7,0.7,1c0.7,0.4,1.4-0.2,2.1-0.6c1,0.7,0.1,1.4,0.3,2.1c0.7,1.3,2.5,1.2,3.7,1.7c0.4,0.8,0.3,1.6,0,2.4
		c1,1.7,2.6,1.7,3.2,2.9c-0.4,0.4-0.9,1-1.3,0.9c-0.3,0.6,0.2,1.3,0.2,2c0.5,0.5,1.5,0.4,1.5,1c-0.1,1-1.4,0.4-1.6,1.5
		c0.8,0.5,1.2,1.1,1.2,1.9c-1.2,0.6-1.5,0.9-1.9,2c0.5,0.4,0.5,0.8,0.8,1.2c-0.6,0.7-1.1,0.6-1.7,1.3c-0.2,0.5,0.4,1,0.4,1.6
		c-1.7,0.3-4,2.1-3.2,3.5c-0.7,1.3-2.4,0.1-3,1.7c-2.1-0.7-4.7,0-7.2,1.5c-0.8-0.6-0.8-1.7-1.7-1.9c-0.6,0-1.2,0.8-1.7,0.8
		c-0.6-1.8-1.5-2.6-3.2-1.4c-0.2-0.5-0.1-0.9-0.5-1.4C48.5,233.4,45,233.7,46.4,231.4z"/>
</g>
<g>
	<path fill="#FFFFFF" d="M58.5,98.2c0-0.4,0-0.7,0-1.2s0.1-0.8,0.3-1.2c0.3-0.6,0.6-1.1,0.8-1.7s0.6-1,1-1.5
		c0.1-0.1,0.3-0.3,0.5-0.4c0.2-0.2,0.5-0.4,0.7-0.5c0.2-0.2,0.4-0.3,0.7-0.5c0.2-0.1,0.3-0.3,0.4-0.3c0.3-0.2,0.6-0.4,1-0.5
		c0.3-0.1,0.7-0.1,1.1-0.2s0.7,0,1.1,0c0.4,0,0.7,0,1.1,0c0.5,0,0.9,0.1,1.2,0.2c0.3,0.1,0.7,0.3,1.2,0.5c0.2,0.1,0.5,0.2,0.9,0.4
		s0.7,0.4,0.9,0.6c1.1,0.8,2,1.7,2.8,2.7s1.2,2.3,1.4,3.8c0,0.9,0,1.6-0.1,2.2c-0.1,0.6-0.2,1.2-0.4,1.7c-0.2,0.5-0.5,1-0.9,1.4
		s-0.9,0.9-1.6,1.5c-0.6,0.5-1.3,1-2.2,1.3c-0.9,0.4-1.7,0.6-2.5,0.6c-0.1,0-0.2,0-0.4,0c-0.2,0-0.4,0-0.7-0.1
		c-0.2,0-0.4-0.1-0.6-0.1c-0.2,0-0.3-0.1-0.4-0.1c-0.1,0-0.3-0.1-0.5-0.1c-0.2-0.1-0.4-0.1-0.7-0.2c-0.2-0.1-0.4-0.1-0.6-0.2
		c-0.2-0.1-0.3-0.1-0.4-0.1c-0.1,0-0.2-0.1-0.4-0.2c-0.2-0.1-0.4-0.2-0.7-0.3c-0.2-0.1-0.5-0.2-0.7-0.3c-0.2-0.1-0.4-0.1-0.4-0.2
		c-0.6-0.5-1.1-1-1.5-1.5c-0.4-0.5-0.7-1-0.9-1.6c-0.2-0.6-0.3-1.2-0.4-1.8C58.5,99.8,58.5,99,58.5,98.2z M59.6,129.6
		c0-0.2,0-0.7,0-1.5c0-0.8,0-1.7-0.1-2.7c0-1,0-2-0.1-3c0-1,0-1.8,0-2.5c0-0.1,0.1-0.2,0.1-0.4c0-0.2,0.1-0.5,0.1-0.7
		c0-0.3,0-0.5,0.1-0.7c0-0.2,0-0.4,0-0.4v-4.9c0.2-0.2,0.5-0.4,0.9-0.6c0.4-0.1,0.8-0.2,1-0.2h11.7c0.2,0.1,0.4,0.1,0.6,0.2
		c0.2,0,0.3,0.1,0.5,0.3c0.1,0.2,0.2,0.4,0.3,0.8c0.1,0.4,0.1,1,0.1,1.8c0,0.1,0.1,0.2,0.1,0.3c0,0.2,0.1,0.4,0.1,0.6
		c0,0.2,0,0.4,0.1,0.6c0,0.2,0,0.3,0,0.3c0,0.4,0,1.1,0.1,2.1c0,1,0.1,2.1,0.1,3.2c0,1.1,0.1,2.2,0.1,3.2c0,1,0.1,1.7,0.1,2.1
		c0,0.2,0,0.7,0.1,1.5c0.1,0.8,0.1,1.6,0.2,2.5c0.1,0.9,0.1,1.7,0.2,2.5c0.1,0.8,0.1,1.3,0.1,1.5c0,0.2,0,0.7,0,1.4
		c0,0.7,0.1,1.5,0.1,2.4c0.1,0.9,0.1,1.9,0.2,2.9c0.1,1,0.1,2,0.2,2.9c0.1,0.9,0.1,1.7,0.1,2.4c0,0.7,0.1,1.2,0.1,1.4
		c0,0.4,0,1,0,1.9c0,0.9,0,1.8,0,2.8s0,1.9,0.1,2.8c0,0.9,0.1,1.5,0.1,1.9v0.6c0.1,1.1,0.1,1.9-0.2,2.5c-0.3,0.6-0.8,0.8-1.7,0.6
		l-13-0.1c-0.6,0-1.1-0.2-1.3-0.6c-0.2-0.4-0.4-0.8-0.4-1.4c-0.1-0.6-0.1-1.3-0.1-2s-0.1-1.6-0.2-2.4c-0.1-0.6-0.1-1.3-0.1-2
		s0-1.4,0-2.2c0-0.7,0-1.4,0-2.1c0-0.7,0-1.4,0-2c-0.1-1.6-0.1-3.1-0.2-4.5c-0.1-1.4-0.1-2.8-0.1-4.2c0-1.4,0-2.8-0.1-4.2
		C59.6,132.6,59.6,131.1,59.6,129.6z"/>
	<path fill="#FFFFFF" d="M85.6,162.4c-0.4-0.1-0.6-0.2-0.9-0.3c-0.2-0.2-0.4-0.4-0.6-0.6c-0.1-0.2-0.2-0.5-0.2-0.7
		c0-0.2-0.1-0.5,0-0.7c0-0.2,0-0.4,0-0.6c0-2.1,0-4.1-0.1-6.2c-0.1-2.1-0.1-4.1-0.1-6.2c0-2.1,0-4.1,0-6.2c0-2.1,0.1-4.1,0.3-6.2
		l-0.2-1.9c0-0.2,0.1-0.4,0.1-0.6c0-0.2,0-0.3,0-0.5c0-0.2,0-0.3,0-0.5v-2.4c0-0.2,0-0.5,0-1.1c0-0.6,0-1.2,0-1.9s0-1.3,0-1.9
		c0-0.6,0-1,0-1.2c0-0.1,0-0.5,0.1-1.1c0-0.6,0.1-1.2,0.1-1.9c0-0.7,0.1-1.3,0.1-1.9c0-0.6,0-1,0-1.1c0-0.6,0-1.3-0.1-2
		c-0.1-0.8-0.1-1.5-0.1-2.1l0.1-1.4c0-0.3,0.1-0.6,0.3-0.7c0.2-0.1,0.4-0.2,0.6-0.2c0.2,0,0.4,0,0.6,0c0.2,0,0.3,0,0.3,0
		c0.1,0,0.2,0,0.5,0c0.2,0,0.5,0,0.7-0.1c0.3,0,0.5-0.1,0.7-0.1c0.2,0,0.4-0.1,0.4-0.1c0.5,0,1,0,1.5,0c0.5,0,0.9,0,1.4,0
		c0.4,0,0.9,0,1.4,0c0.5,0,1,0,1.6,0.1l0.4,0c0,0,0.1,0,0.3,0c0.1,0,0.3,0.1,0.5,0.1c0.2,0,0.3,0.1,0.5,0.1c0.2,0,0.3,0.1,0.4,0.1
		c0.6,0.1,1,0.2,1.2,0.4c0.2,0.2,0.4,0.4,0.4,0.6s0.1,0.6,0.1,1c0,0.4,0.1,0.8,0.2,1.4c1.2-1.1,2.4-1.9,3.7-2.6
		c1.3-0.7,2.6-1.2,4-1.5c1.4-0.3,2.8-0.6,4.2-0.6c1.4-0.1,2.9-0.1,4.4,0c0.4,0,0.8,0,1.3,0.1c0.5,0.1,0.9,0.2,1.4,0.3
		c0.5,0.1,0.9,0.3,1.4,0.5c0.4,0.2,0.9,0.4,1.2,0.6c0.2,0.2,0.6,0.4,1,0.7c0.4,0.3,0.8,0.6,1.2,0.9c0.4,0.3,0.7,0.6,1,0.8
		c0.3,0.2,0.4,0.3,0.5,0.3c0.8,0.6,1.4,1.2,2,2c0.6,0.8,1.1,1.5,1.5,2.4c0.4,0.8,0.8,1.7,1.1,2.7c0.3,0.9,0.5,1.8,0.7,2.7
		c0.1,0.1,0.2,0.4,0.3,0.8c0.1,0.4,0.2,1,0.3,1.5c0.1,0.6,0.2,1.1,0.2,1.7c0.1,0.6,0.1,1,0.1,1.3v0.7c0,0.1,0,0.4,0,0.8
		c0,0.4,0,0.9,0,1.4c0,0.5,0,1,0,1.4c0,0.4,0,0.7,0,0.8l0,6.8l-0.1,1.4c0,0.1-0.1,0.2-0.1,0.5c0,0.2-0.1,0.5-0.1,0.8
		c0,0.3-0.1,0.5-0.1,0.8c0,0.2,0,0.4,0,0.5l0,0.9c0,0.5,0,1.2,0,2c0,0.8,0,1.7,0,2.6c0,0.9,0,1.8,0,2.8c0,0.9,0,1.8,0,2.6s0,1.5,0,2
		c0,0.5,0,0.9,0,1c0,0.1,0,0.3,0,0.5s0,0.5,0,0.8s0,0.6,0,0.8c0,0.3,0,0.4,0,0.5l0,0.4c0,0.3-0.2,0.5-0.5,0.6s-0.6,0.1-0.8,0.1
		c-0.1,0-0.2,0-0.3,0c-0.2,0-0.3,0-0.5,0.1s-0.3,0-0.4,0.1c-0.1,0-0.2,0-0.2,0.1c-0.1,0-0.3,0-0.6,0c-0.3,0-0.7,0-1.1,0
		c-0.4,0-0.7,0-1.1,0c-0.3,0-0.5,0-0.6,0.1c-1.3,0.1-2.5,0.1-3.6,0.2s-2.3,0.1-3.7,0.1c-0.5,0-0.8-0.2-1-0.4
		c-0.2-0.2-0.3-0.5-0.4-0.8c-0.1-0.3-0.1-0.7,0-1c0-0.4,0-0.7,0-1c0-0.1,0-0.5,0-1s0-1.1,0-1.7c0-0.7,0-1.4,0-2.1c0-0.8,0-1.5,0-2.1
		c0-0.7,0-1.2,0-1.7s0-0.8,0-1l0-9.5c0.1-1,0.1-2.1,0-3.3c-0.1-1.3-0.2-2.5-0.4-3.9c-0.2-1.3-0.5-2.6-0.8-3.9
		c-0.4-1.3-0.8-2.4-1.3-3.4c-0.5-1-1.1-1.8-1.8-2.3c-0.7-0.6-1.4-0.8-2.3-0.7l-1.4-0.1c-1,0-1.7,0.1-2.3,0.3
		c-0.6,0.2-1.3,0.6-2.2,1.1c-0.1,0-0.1,0-0.2,0.1c-0.1,0.1-0.1,0.1-0.1,0.2c-0.8,0.6-1.4,1.4-1.9,2.4c-0.5,1-1,2.2-1.3,3.6
		c-0.4,1.3-0.7,2.7-0.9,4.2s-0.4,2.9-0.6,4.4c0,0.1-0.1,0.5-0.1,1c-0.1,0.5-0.1,1.2-0.2,1.8c-0.1,0.7-0.1,1.3-0.2,2
		c0,0.7-0.1,1.2-0.1,1.5c0,0,0,0.2,0,0.4c0,0.2,0,0.5-0.1,0.9c0,0.3-0.1,0.7-0.1,1c0,0.3,0,0.6,0,0.8c0,0.1,0,0.4,0,0.7
		c0,0.3,0,0.6,0,1c0,0.3,0,0.7,0,1c0,0.3,0,0.5,0,0.6l0,6.1c0,0.1,0,0.2,0,0.5c0.1,0.2,0.1,0.4,0.1,0.5c0,0,0,0.1,0,0.2
		c0,0.1,0,0.3,0,0.4c0,0.1,0,0.3,0,0.4c0,0.1,0,0.2,0,0.2c0,0.2,0,0.5,0,0.8c0,0.3,0,0.6,0,0.9c-0.1,0.3-0.2,0.5-0.3,0.7
		c-0.2,0.2-0.5,0.3-0.9,0.2c-0.6,0-1.3,0-2.1,0c-0.7,0-1.5,0-2.3,0.1c-0.8,0-1.6,0-2.5,0.1C87.2,162.6,86.4,162.5,85.6,162.4z"/>
	<path fill="#FFFFFF" d="M166.6,156.8c-0.1,0-0.2-0.1-0.3-0.2c-0.2-0.1-0.3-0.3-0.5-0.4c-0.2-0.1-0.3-0.3-0.4-0.4
		c-0.1-0.1-0.2-0.2-0.2-0.2c-0.1-0.1-0.1-0.2-0.3-0.4s-0.2-0.3-0.3-0.4c-0.2-0.2-0.6-0.7-1-1.3c-0.5-0.7-1-1.3-1.5-2.1
		s-1-1.4-1.5-2.1c-0.5-0.7-0.9-1.1-1.1-1.4l-0.7-0.7c-0.1-0.1-0.2-0.2-0.2-0.3c-0.1-0.2-0.2-0.3-0.2-0.4c-0.2-0.3-0.6-0.7-1.2-1.3
		c-0.6-0.6-1.2-1.3-1.9-1.9c-0.7-0.7-1.3-1.3-1.9-1.9c-0.6-0.6-1-1.1-1.2-1.3v0.9c0.1,0.8,0.2,1.7,0.2,2.6c0.1,0.9,0.1,1.8,0.1,2.7
		c0,0.9,0.1,1.8,0.1,2.7c0,0.9,0.1,1.8,0.1,2.6c0.1,1.6,0.2,3.1,0.3,4.6c0.1,1.5,0.3,3,0.3,4.6c0.1,0.8,0,1.3-0.3,1.5
		c-0.2,0.2-0.6,0.3-1,0.3c-0.9,0-1.7,0-2.5,0.1c-0.8,0-1.7,0-2.5-0.1c-1-0.1-1.8-0.1-2.6,0c-0.8,0.1-1.5,0.2-2.2,0.2
		c-0.7,0.1-1.4,0.1-2.2,0.1c-0.8,0-1.6-0.1-2.7-0.3c-0.1-0.1-0.3-0.1-0.4-0.2c-0.1-0.1-0.2-0.2-0.2-0.3v-0.2c0,0,0-0.1,0-0.3
		c0-0.1-0.1-0.3-0.1-0.5c0-0.2-0.1-0.3-0.1-0.4c0-0.1,0-0.2,0-0.2l-0.3-18.6l-0.2-7l0-13.8c0-0.2,0-0.7,0-1.5c0-0.8-0.1-1.7-0.1-2.8
		c0-1.1-0.1-2.2-0.1-3.5c0-1.2-0.1-2.4-0.1-3.5c0-1.1-0.1-2-0.1-2.8c0-0.8-0.1-1.3-0.1-1.5c0-1.6,0-3.3-0.1-4.9
		c-0.1-1.6-0.1-3.2-0.1-4.8v-0.7c0-0.7,0.1-1.2,0.3-1.5c0.2-0.3,0.6-0.5,1.1-0.6h0.9c1.2,0,2.4,0,3.6,0c1.2,0,2.4,0,3.6,0
		c0.6,0,1.2,0,1.8,0c0.6,0,1.2,0,1.8,0c0.6,0,1.1,0,1.6,0.1c0.5,0.1,1,0.3,1.4,0.6c0.1,0.2,0.1,0.4,0.2,0.4c0.1,0.1,0.2,0.2,0.2,0.3
		v0.2c0,0.2,0,0.3,0,0.4c0,0.1-0.1,0.2-0.1,0.4v2.7c0,0.1,0,0.3,0,0.6c0,0.3,0,0.5,0,0.8c0,0.2,0,0.5,0,0.7s0,0.3,0,0.3
		c0,0.1,0,0.2,0,0.3c0,0.2,0,0.3,0.1,0.5c0,0.2,0,0.3,0.1,0.5c0,0.2,0,0.2,0,0.3c0,0.1,0,0.5,0,1c0,0.5,0,1.1,0,1.7
		c0,0.6,0,1.2,0,1.7c0,0.5,0,0.9,0,1c0,0.2,0.1,0.5,0.1,1s0.1,0.9,0.1,1.4s0,1,0.1,1.4c0,0.4,0,0.8,0,0.9c0,0.1,0,0.3-0.1,0.6
		c-0.1,0.4-0.1,0.8-0.2,1.2s-0.1,0.9-0.2,1.2c-0.1,0.4-0.1,0.6-0.1,0.6v0.5c0.1,1.9,0.2,3.7,0.3,5.3c0.1,1.6,0.2,3.2,0.4,4.6
		c0.1-0.1,0.2-0.3,0.5-0.6c0.3-0.3,0.6-0.7,1-1.1c0.4-0.4,0.8-0.9,1.3-1.4c0.5-0.5,0.9-1,1.3-1.4c0.4-0.4,0.7-0.8,1-1.1
		s0.5-0.5,0.5-0.6c0.1-0.1,0.3-0.3,0.7-0.7c0.4-0.4,0.8-0.8,1.2-1.2c0.4-0.4,0.8-0.9,1.2-1.2s0.6-0.6,0.7-0.8
		c0.2-0.2,0.4-0.4,0.7-0.8c0.3-0.4,0.7-0.8,1-1.2c0.4-0.4,0.7-0.9,1.1-1.2s0.7-0.7,0.9-1c0,0,0.1-0.1,0.3-0.3
		c0.2-0.1,0.3-0.3,0.5-0.5c0.2-0.2,0.4-0.4,0.5-0.5s0.2-0.2,0.3-0.3c0.1-0.1,0.3-0.2,0.6-0.5c0.3-0.3,0.6-0.6,0.9-1
		c0.3-0.3,0.6-0.7,0.8-1c0.3-0.3,0.4-0.5,0.5-0.5c0.1-0.1,0.3-0.1,0.5,0c0.2,0.1,0.4,0.1,0.4,0.1h0.4l11.8,2.6
		c0.1,0.1,0.3,0.2,0.6,0.3c0.3,0,0.6,0.1,0.8,0.1c0.3,0,0.5,0.1,0.7,0.2c0.2,0.1,0.3,0.2,0.3,0.4v0.2c-0.6,1.1-1.2,2-1.8,2.9
		c-0.6,0.8-1.3,1.6-2.3,2.4c-0.6,0.6-1.2,1.2-1.8,1.8s-1.1,1.2-1.7,1.8l-11.8,11.4c0-0.1,0,0-0.1,0.1c-0.1,0.1-0.2,0.2-0.4,0.4
		c-0.2,0.2-0.3,0.3-0.5,0.5s-0.3,0.4-0.4,0.5c-0.2,0.2-0.3,0.3-0.4,0.2c-0.1-0.1-0.1,0-0.1,0.2c0,0.2,0.2,0.5,0.5,0.9
		c0.3,0.3,0.6,0.6,0.8,0.8c0.1,0.1,0.3,0.4,0.6,0.8c0.3,0.4,0.6,0.9,1,1.4c0.4,0.5,0.8,1,1.2,1.6s0.8,0.9,1.2,1.1
		c0.3,0.4,0.6,0.8,1,1.1c0.4,0.3,0.7,0.6,1.1,0.9c0.4,0.3,0.7,0.6,1.1,0.9s0.7,0.7,1,1.1c0.1,0.1,0.2,0.3,0.5,0.6
		c0.3,0.3,0.6,0.7,1,1.1c0.3,0.4,0.7,0.8,0.9,1.1c0.3,0.4,0.5,0.6,0.6,0.7c0.1,0.1,0.2,0.3,0.4,0.6c0.2,0.3,0.5,0.6,0.8,1
		c0.3,0.3,0.6,0.7,0.8,1s0.4,0.5,0.5,0.6c0,0.1,0.1,0.2,0.2,0.3c0.1,0.2,0.3,0.4,0.5,0.6c0.2,0.2,0.3,0.4,0.4,0.6
		c0.1,0.2,0.2,0.3,0.3,0.3c0.5,0.6,1,1.2,1.6,1.7c0.5,0.5,1.1,1,1.6,1.6c0.5,0.5,1,1,1.6,1.6s1,1.1,1.5,1.8v0.3
		c0.2,0.5,0.1,0.9-0.2,1.2c-0.4,0.3-0.8,0.5-1.2,0.5c-0.2,0-0.5,0.1-1,0.1c-0.4,0.1-0.9,0.1-1.3,0.2c-0.5,0.1-0.9,0.1-1.4,0.1
		s-0.8,0.1-0.9,0.1c-0.1,0-0.4,0-0.8,0.1c-0.4,0.1-0.6,0.1-0.7,0.2l-3,0.5c-0.4,0.1-0.8,0.2-1,0.2c-0.3,0.1-0.5,0.1-0.7,0.2
		c-0.2,0-0.4,0.1-0.7,0.2s-0.6,0.1-1,0.2c-0.5,0.3-0.9,0.4-1.2,0.2c-0.4-0.2-0.7-0.4-1-0.8c-0.1-0.1-0.1-0.1-0.2-0.2
		c-0.1-0.1-0.1-0.1-0.1-0.1c0,0-0.1-0.1-0.1-0.1L166.6,156.8z"/>
</g>
</svg>
